<svg xmlns="http://www.w3.org/2000/svg" viewBox="0 0 546.4336 180" shape-rendering="geometricPrecision">
  <path fill="#fff" d="M536.3203,50.1514c-5.2422,0-10.0566-4.1084-10.0566-10.084c0-5.8106,4.6504-10.0889,10.0566-10.0889
	c5.666,0,10.1133,4.3945,10.1133,10.1172C546.4336,45.4766,542.1855,50.1514,536.3203,50.1514z M536.3203,30.8877
	c-4.9824,0-9.1484,4.0244-9.1484,9.1797c0,5.1855,4.1347,9.1797,9.1797,9.1797c5.2949,0,9.1757-4.251,9.1757-9.1514
	C545.5273,34.998,541.6172,30.8877,536.3203,30.8877z M536.209,33.6377c1.3047,0,2.2129,0.0244,2.9785,0.3096
	c1.3828,0.4814,2.0313,1.7578,2.0313,2.9463c0,0.8779-0.3418,2.4345-2.5977,3.0009c1.2187,0.5098,1.5781,1.2481,1.8125,2.6641
	c0.2519,1.7598,0.3945,2.6621,0.957,3.8008h-2.5781c-0.3691-0.7422-0.4238-1.2207-0.6777-2.7813
	c-0.4219-2.6904-0.5957-2.9424-3.793-2.9424v5.7237h-2.2715V33.6377H536.209z M534.3672,38.8184h1.8672
	c0.9414,0,2.7246,0,2.7246-1.753c0-0.5117-0.2305-1.1924-0.9063-1.5068c-0.4589-0.1641-0.8515-0.1641-2.2402-0.1641h-1.4453V38.8184
	z M510.6289,145.4971c-0.6309-1.753-1.3457-4.1055-1.3457-4.1055l-12.2793-32.542c-0.3047-0.7187-0.8184-1.0742-1.5351-1.0742
	h-34.2305c-0.6133,0-1.0723,0.4072-1.3809,1.2236l-8.2851,21.9541c-1.541,3.7881-2.3067,6.9063-2.3067,9.3653
	c0,1.5293,0.461,2.708,1.3828,3.5273c0.9239,0.8232,2.5039,1.2285,4.7598,1.2285h2.2988c1.5371,0,2.3047,0.4131,2.3047,1.2295
	c0,1.0225-0.873,1.5371-2.6094,1.5371c-1.9453,0-4.705-0.0576-8.2871-0.1553c-3.9941-0.205-6.6543-0.3105-7.9882-0.3105
	c-0.2989,0-1.4297,0.0488-3.375,0.1543c-1.5313,0-3.709,0.0537-6.5235,0.1562c-2.8125,0.0977-5.5508,0.1553-8.2129,0.1553
	c-1.9433,0-2.9121-0.5146-2.9121-1.5371c0-0.8164,0.6113-1.2295,1.834-1.2295c1.5371,0,3.127-0.0996,4.7637-0.3037
	c3.2715-0.4101,5.832-1.7139,7.6758-3.9189c1.8437-2.1973,3.6328-5.4991,5.371-9.8985l38.5313-96.4013
	c0.9219-2.3526,1.6895-3.9639,2.3008-4.835c0.6152-0.8701,1.2812-1.3047,1.9941-1.3047c1.1309,0,2.4082,1.6387,3.8399,4.9141
	c0.7168,1.5332,2.2519,5.2695,4.6015,11.206l9.211,23.1768l14.6601,36.459l4.0703,10.1289l5.5254,13.4336
	c2.5587,6.1367,4.9141,10.3359,7.0587,12.5879c2.1543,2.249,4.3028,3.6289,6.4473,4.1435c2.0488,0.4053,4.1972,0.6123,6.4472,0.6123
	c1.3321,0,1.9981,0.4131,1.9981,1.2295c0,0.6152-0.457,1.0225-1.3809,1.2256c-0.9218,0.207-2.8125,0.3115-5.6797,0.3115
	l-14.6503-0.333c-4.3497,0-8.7168,0.3262-12.0273,0.3262C511.7598,147.834,511.2578,147.251,510.6289,145.4971z M464.3086,100.0996
	h28.2441c0.5118,0,0.7676-0.3066,0.7676-0.9219l-13.8164-37.916v-0.1504c-0.2012-0.8183-0.457-1.2343-0.7637-1.2343
	c-0.414,0-0.7168,0.4658-0.9257,1.3847l-14.1192,37.7627C463.6953,99.7402,463.9004,100.0996,464.3086,100.0996z M322.6465,89.4453
	c-0.0078,0.374-0.0742,10.7793-0.0742,10.7793c-0.1035,3.0664-0.1524,11.3555-0.1524,20.5381v16.8428
	c0,2.041-0.1035,3.3437-0.3047,3.9062c-0.2089,0.5576-0.7675,1.0957-1.6855,1.6055c-4.5957,2.3476-10.207,4.082-16.8418,5.208
	c-6.6348,1.1182-13.3203,1.6826-20.0547,1.6826c-9.6973,0-18.7832-1.1758-27.2559-3.5215
	c-8.4668-2.3447-15.9687-5.9736-22.5-10.8711c-6.5332-4.9004-11.664-11.1767-15.3906-18.832
	c-3.7246-7.6543-5.5879-16.5859-5.5879-26.792c0-11.4287,2.5274-21.4844,7.5801-30.1592
	c5.0527-8.6758,11.4063-15.3115,19.0586-19.9023c6.6387-3.9805,13.2188-6.6367,19.7539-7.9619
	c6.5332-1.3252,13.6777-1.9893,21.4316-1.9893c2.5547,0,5.1563,0.0752,7.8086,0.2305c2.6543,0.1484,5.4122,0.3818,8.2696,0.6904
	c2.8515,0.3027,5.2031,0.5869,7.041,0.8399c1.8359,0.2519,3.1621,0.4824,3.9785,0.6904c2.043,0.4062,4.1856,0.7656,6.4297,1.0683
	c2.25,0.3067,4.1348,0.5108,5.666,0.6094c1.4316,0.1055,2.1426,0.7178,2.1426,1.8418c0,0.3067-0.0527,0.8653-0.1524,1.6826
	c-0.205,2.2452-0.4101,5.0772-0.6132,8.4971c-0.2032,3.4209-0.3067,8.3965-0.3067,14.9277c0,2.1446-0.5566,3.2168-1.6855,3.2168
	c-0.8145,0-1.3242-0.6679-1.5274-1.9902c-0.3086-2.4512-0.8203-4.7236-1.5312-6.8135c-0.7149-2.0947-1.9395-4.0586-3.6778-5.8955
	c-2.7539-2.958-7.1679-5.6914-13.2441-8.1885c-6.0684-2.5048-13.0352-3.7539-20.8926-3.7539
	c-5.6172,0-10.8711,0.5899-15.7695,1.7627c-4.8965,1.1709-9.7481,3.752-14.5469,7.7256c-4.4863,3.7783-7.9609,8.708-10.4101,14.7783
	c-2.4493,6.0713-3.6739,13.6504-3.6739,22.7354c0,8.1611,1.252,15.7685,3.75,22.8125c2.5039,7.042,6.0996,13.1631,10.7969,18.374
	c4.6953,5.2031,10.332,9.2324,16.9141,12.0918c6.5801,2.8574,13.8554,4.2861,21.8144,4.2861c2.8614,0,5.3321-0.1005,7.4278-0.3056
	c2.0937-0.2041,3.957-0.6641,5.5918-1.3799c1.9355-0.915,2.9082-2.8027,2.9082-5.6641v-14.3877
	c0-8.9824-0.0528-17.1699-0.1543-20.2363c-0.1016-2.6514-0.6114-4.6396-1.5293-5.9668c-0.9219-1.3291-2.6075-2.2471-5.0567-2.7539
	c-1.2207-0.3105-3.2148-0.4639-5.9726-0.4639c-1.5293,0-2.293-0.4072-2.293-1.2207c0-1.0185,1.0723-1.5302,3.2168-1.5302
	c2.7539,0,7.3945,0.1005,13.9297,0.3037c4.4922,0.1035,7.2461,0.1494,8.2656,0.1494c1.1504,0,3.8692-0.0879,8.0234-0.2676
	C322.4551,88.4746,322.6543,89.0703,322.6465,89.4453z M370.6113,103.4648V76.5195V52.9404c0-3.3662-0.0976-6.3242-0.3008-8.8818
	c-0.3085-4.9961-2.0449-7.8574-5.2109-8.5693c-1.5273-0.4092-3.3691-0.6123-5.5098-0.6123c-1.6328,0-2.4492-0.5098-2.4492-1.5293
	c0-0.8194,1.2227-1.2266,3.6758-1.2266c1.9395,0,5.666,0.1006,11.1738,0.3086c4.2852,0.0986,7.1973,0.1465,8.7286,0.1465
	c1.2226,0,3.7246-0.0479,7.5019-0.1465c5.3066-0.208,9.0293-0.3086,11.1777-0.3086c2.1407,0,3.209,0.4072,3.209,1.2266
	c0,1.0195-0.8125,1.5293-2.4453,1.5293c-1.2266,0-2.7558,0.1523-4.5957,0.4609c-2.0391,0.4062-3.4453,1.2744-4.2129,2.6025
	c-0.7597,1.3223-1.2461,3.3682-1.4512,6.1182c-0.2031,2.5576-0.3085,5.5156-0.3085,8.8818v23.5791v26.9453
	c0,9.4932,0.0273,16.709,0.082,21.667c0.0469,4.9473,0.2265,8.8994,0.5351,11.8623c0.3028,2.3457,0.8672,4.1114,1.6836,5.2813
	c0.8184,1.1738,2.291,1.915,4.4395,2.2187c1.123,0.1036,2.3965,0.2286,3.8281,0.3829c1.4277,0.1542,2.752,0.2343,3.9766,0.2343
	c1.6328,0,2.4531,0.4043,2.4531,1.2217c0,1.0225-0.9727,1.5303-2.9102,1.5303c-4.2832,0-9.9003-0.1016-16.8378-0.3096
	c-3.2676-0.0967-5.6153-0.1494-7.0469-0.1494c-0.8125,0-3.2149,0.0527-7.1953,0.1494c-5.918,0.208-9.9473,0.3096-12.0938,0.3096
	c-2.039,0-3.0644-0.5078-3.0644-1.5303c0-0.8174,0.8203-1.2217,2.4531-1.2217c1.834,0,3.6758-0.209,5.5117-0.6172
	c2.4453-0.5107,3.9297-3.0595,4.4375-7.6562c0.3086-2.9531,0.5117-6.916,0.6152-11.8623
	C370.5605,120.0273,370.6113,112.8564,370.6113,103.4648z"/>
  <path fill="#B29773" d="M167.873,96.3867c3.7461-1.2148,12.1856-3.8691,12.1856-3.8691l-11.9356-4.7012
	c0,0,8.0293-3.6152,11.6739-5.2578l-12.3535-3.3145c3.3574-2.1425,11.0254-6.416,11.0254-6.416l-12.6661-2.082l10.1094-7.669
	l-12.6816-0.5459l9.3125-8.75l-12.7383,0.8575c2.5683-2.961,5.6445-6.7207,8.2871-9.6504l-12.5742,2.1875l7.1152-10.5723
	L150.4414,40.25c1.752-3.5391,5.8711-11.3457,5.8711-11.3457l-11.2207,4.3965l4.0879-11.2774l-11.0508,6.1563
	c0.9961-3.8223,2.4063-8.4063,3.3652-12.2637l-10.4433,7.4082c0,0,1.3359-8.8222,1.9414-12.6094l-9.5469,8.4629l0.6445-12.75
	l-0.6445,0.75c-2.6367,2.8946-5.2109,6.1094-7.959,8.7149l-0.7519-12.583l-7.4649,10.2998
	c-0.6757-3.8946-1.5547-8.4961-2.0879-12.4619l-6.4121,10.9931L95.2031,0.0273l-5,11.5821L85.3184,0l-3.6895,12.1406L75.4727,1.0547
	L73.168,13.5L65.8398,3.166l-0.9921,12.6563l-8.4063-9.4668l0.4414,12.7148l-9.4902-8.4219l1.8457,12.5313l-10.2266-7.458
	l3.125,12.3486c0,0-7.5293-4.334-10.959-6.2988l4.5235,11.9306L24.0059,28.748l5.7714,11.25l-12.1132-3.6679l7.08,10.5254
	l-12.5175-2.3008l8.123,9.8359L7.7578,53.3652l9.0899,8.918L4.1934,62.6094l10.0839,7.8847L1.7109,72.248l10.9258,6.6387
	c-3.7539,1.1426-8.5801,2.1445-12.3281,3.25l11.4902,5.2461C8.1172,88.918,0,92.0918,0,92.0918s8.5664,2.5801,12.1367,4.043
	l-11.3691,5.8183c0,0,8.6895,1.8252,12.5469,2.6465c-3.252,2.1777-10.7032,7.0703-10.7032,7.0703l12.7754,1.2481
	c-2.9297,2.5722-9.8476,8.2597-9.8476,8.2597l12.8476-0.1142l-8.8847,9.2392l12.7422-1.5996
	c-2.3945,3.1436-7.8339,10.1651-7.8339,10.1651l12.5449-2.8809l-6.6758,10.9189l12.1836-4.2363l-5.4609,11.5137
	c0,0,8.0625-4.0859,11.5957-5.5176l-4.0997,12.1758l10.75-6.834l-2.5957,12.5352l9.9415-7.8516l-1.2344,12.6055l9.1797-9.2119
	l-0.0918,12.9365c0,0,5.6484-7.1778,8.1465-9.9961c0.539,3.9219,1.5644,12.7734,1.5644,12.7734l6.8106-10.9384l2.75,12.5537
	l0.5566-0.998l5.3184-10.7158L89.8438,180l4.4433-11.8867l5.5293,11.3613l2.9902-12.5605c0,0,4.7754,7.5664,6.7735,10.957
	l1.6191-12.8457c0,0,5.4356,7.0859,7.9707,10.1592l0.3438-12.5166l8.7949,8.7168l-1.0293-12.5118l9.7656,7.9004
	c-0.7832-3.6093-2.6191-12.6777-2.6191-12.6777c3.2812,2.25,7.5156,4.8418,10.8359,6.9863l-3.9609-12.2383l11.5039,5.67
	c0,0-3.8613-8.1328-5.3613-11.668c3.539,1.2852,8.5195,3.0332,12.0214,4.4629c0.4278,0.3184-6.2949-11.0674-6.2949-11.0674
	l12.2285,3.0244l-7.539-10.2558l12.5136,1.665l-8.8613-9.3623l12.8574,0.2949l-9.7832-8.334l12.7559-1.1582l-10.6113-7.2304
	l12.5058-2.4551L167.873,96.3867z M176.7656,92.0293l-16.7148-0.6094l7.5371-2.998
	C170.6543,89.5996,173.6953,90.8125,176.7656,92.0293z M156.9805,107.957l6.1855,4.7569l-7.8984,0.5595
	C155.2676,113.2734,156.4824,109.7422,156.9805,107.957z M153.9824,62.9609l7.8457,0.1162
	c-1.9648,1.7852-3.8086,3.5977-5.9551,5.2051L153.9824,62.9609z M156.4727,69.9922l7.7636,1.164
	c-2.2461,1.5333-4.0781,3.0899-6.4004,4.4834L156.4727,69.9922z M158.5898,100.4199l6.8536,4.2862l-7.9629,1.288L158.5898,100.4199z
	 M158.2637,77.6035l7.4922,1.9434l-6.6329,3.626L158.2637,77.6035z M159.3008,92.8867l7.3574,3.4258
	c-2.5312,0.8223-5.2148,1.4297-7.7852,2.1436L159.3008,92.8867z M159.1934,85.1748l7.6445,2.6416
	c-2.3965,1.0332-4.9649,2.0703-7.4649,3.0684L159.1934,85.1748z M176.4453,82.4219l-16.6406,1.2851l7.1035-3.7851L176.4453,82.4219z
	 M175.0176,73.0527l-16.3223,3.0118l6.5684-4.6407L175.0176,73.0527z M172.7266,63.75l-15.8496,4.8535l6.1015-5.2871L172.7266,63.75
	z M169.4102,54.7461l-15.3555,6.6797l5.4961-6.0703C159.5508,55.3555,166.1563,54.9609,169.4102,54.7461z M153.1973,61.1738
	l-2.6407-5.0683c2.6778-0.2891,7.836-0.75,7.836-0.75S154.9473,59.1387,153.1973,61.1738z M164.8418,46.3359l-14.6406,8.4375
	l4.6855-6.6953C158.1387,47.5078,161.6289,46.9443,164.8418,46.3359z M149.5195,54.3906l-3.1797-4.9746l7.4786-1.1367
	L149.5195,54.3906z M159.8047,38.2832l-13.4649,9.75l4.1016-7C153.5898,40.1035,156.7285,39.249,159.8047,38.2832z
	 M145.4121,48.0332h-0.1836l-3.498-4.3594l7.7148-2.6406L145.4121,48.0332z M153.625,30.8896l-12.1797,11.251l3.3731-7.7676
	L153.625,30.8896z M140.4473,42.3203l-4.1446-3.9648c2.3946-1.252,4.9258-2.4268,7.4649-3.5L140.4473,42.3203z M138.3047,29.1074
	l8.5683-4.8945l-11.0722,12.6055L138.3047,29.1074z M134.9473,36.9961l-4.5371-3.4238l6.8593-4.2862
	C136.6992,31.75,135.6621,34.3906,134.9473,36.9961z M131.3438,24.0342l7.8867-5.6416l-9.4961,13.7148L131.3438,24.0342z
	 M128.877,32.3545c-1.6075-0.8193-3.2129-2.0361-4.8946-2.8916l6.4278-5.0703C129.8711,27.0332,129.377,29.7119,128.877,32.3545z
	 M123.8027,20.0371l7.2891-6.6094l-7.9668,14.6426L123.8027,20.0371z M116.0234,16.6074l6.4981-7.2851l-6.3594,15.4297
	C116.125,22.2871,115.9473,19.3574,116.0234,16.6074z M122.9473,20.3574l-0.6778,8.1406l-5.1406-2.3925L122.9473,20.3574z
	 M115.1641,17.1074l0.1425,8.2129l-5.2851-1.7851v-0.25L115.1641,17.1074z M113.4512,6.3223l-4.6446,16l-1.0371-8.1426
	L113.4512,6.3223z M107.0195,14.7861l1.1094,8.1416l-5.6816-1.1797L107.0195,14.7861z M104.1094,4.5547l-2.8399,16.0527
	l-1.8906-7.7129L104.1094,4.5547z M98.5938,13.4277l2.0722,7.9668l-5.7519-0.6113L98.5938,13.4277z M94.666,3.1455l-1.0351,16.71
	l-2.9161-7.4424L94.666,3.1455z M90.1836,13.3281c0,0,1.9824,4.7442,2.8418,7.3867l-5.7188-0.1074L90.1836,13.3281z M85.0586,3.2168
	l0.8574,16.6387l-3.6074-7.2129L85.0586,3.2168z M81.7402,13.4277l3.6778,7.3555l-5.75,0.6113L81.7402,13.4277z M75.5586,4.25
	c0,0,1.7852,10.9648,2.6426,16.4648l-4.3555-6.7871L75.5586,4.25z M73.416,14.7129l4.4668,6.9277l-5.5742,1.2871L73.416,14.7129z
	 M66.2031,6.3945l4.4629,15.9278l-5.1015-5.9825L66.2031,6.3945z M65.3887,17.459l5.0293,5.8965
	c-1.7168,0.6787-3.6407,1.25-5.3946,1.9648L65.3887,17.459z M63.3809,24.8936l-5.8047-5.3409L57.2051,9.4668L63.3809,24.8936z
	 M63.3105,26.0342l-5.248,2.3935l-0.5332-7.8261L63.3105,26.0342z M20.8848,90.5645c-2.5352-0.8575-5.1075-2.0342-7.6407-3
	c2.4981-0.9981,5.1778-1.8165,7.7832-2.6758C20.707,86.6719,20.9219,88.7793,20.8848,90.5645z M21.3125,98.2773L13.418,95.959
	c0,0,4.9687-2.3203,7.4668-3.4297L21.3125,98.2773z M13.9238,79.0684l7.961-1.7891l-0.6797,5.6426L13.9238,79.0684z
	 M21.5645,100.0605l1.1074,5.6817l-8.0723-1.3945L21.5645,100.0605z M15.5645,70.7461c2.6796-0.3965,5.4628-0.5742,8.2109-0.8574
	l-1.4609,5.5703L15.5645,70.7461z M23.0254,107.5996c0.6094,1.7168,1.1445,3.6426,1.7891,5.4258l-8.1426-0.4258L23.0254,107.5996z
	 M24.1602,68.2988l-5.4883-5.2431l7.6738-0.3467L24.1602,68.2988z M50.0996,24.5098l6.5156,4.7763l-5.1601,3.0684L50.0996,24.5098z
	 M50.1445,33.2578l-4.6914,3.6348l-2.2304-7.4297L50.1445,33.2578z M48.5586,13.6094L56.4551,28.25l-6.4473-4.7676L48.5586,13.6094z
	 M40.4902,18.6406l9.4258,13.7139l-6.8711-3.916L40.4902,18.6406z M32.957,24.4668l10.8907,12.7109l-7.2286-3.25L32.957,24.4668z
	 M44.1602,38.0352l-4.2754,4.1054l-3.0469-7.1875L44.1602,38.0352z M26.0996,31.1758c4.0352,3.8945,8.2149,7.5039,12.25,11.3935
	l-7.5351-2.3486L26.0996,31.1758z M38.5977,43.5c-1.211,1.4961-2.461,2.9961-3.6797,4.4629l-3.7032-6.668L38.5977,43.5z
	 M20.0293,38.5312c4.4648,3.3594,8.998,6.6094,13.4258,10.0372l-7.8203-1.6973L20.0293,38.5312z M33.8125,49.4258l-3.0703,4.7871
	l-0.084,0.1582l-4.6211-6.6074L33.8125,49.4258z M14.8867,46.6035l14.3926,8.3906l-7.8418-0.5761L14.8867,46.6035z M29.7051,55.8516
	l-2.5703,5.1445l-5.2051-5.7109L29.7051,55.8516z M10.7031,55.1543c5.1055,2.2148,9.9317,4.5195,15.0371,6.6992l-7.8711,0.332
	L10.7031,55.1543z M7.1738,64.0674l15.9239,5.0713l-8.0664,0.8535L7.1738,64.0674z M4.8516,73.3164l16.3535,3.2871l-8.0332,1.711
	L4.8516,73.3164z M3.5625,82.8535l16.6074,1.459l-7.7129,2.5742L3.5625,82.8535z M3.3145,92.3525l16.7149-0.3232l-7.2871,3.3223
	L3.3145,92.3525z M4.1719,101.8848l16.4277-2.25l-6.75,4.2148L4.1719,101.8848z M6.0293,111.3164l16.1426-4.0391l-6.3594,4.8907
	L6.0293,111.3164z M8.8828,120.3848l15.5742-5.752l-5.7148,5.5703L8.8828,120.3848z M25.4199,114.8145l2.3223,5.3212l-8.1426,0.3213
	L25.4199,114.8145z M12.7422,129.1348l14.8203-7.4668l-5.0703,6.1777L12.7422,129.1348z M28.4922,121.8516
	c1,1.5312,1.9648,3.247,2.9277,4.8867l-8.0703,1.3564L28.4922,121.8516z M17.6016,137.3457l13.8183-9l-4.3926,6.7891
	L17.6016,137.3457z M32.4531,128.4551l3.4297,4.5351l-7.75,2.0469L32.4531,128.4551z M23.1719,145.0625l12.9648-10.5371
	l-3.584,7.2051L23.1719,145.0625z M37.0625,134.5254l3.8574,4.1084l-7.2949,2.874L37.0625,134.5254z M38.5488,147.6406
	l-8.8398,4.2227l11.6387-11.6992L38.5488,147.6406z M42.3125,140.0957l4.2852,3.6777l-7.0352,3.5391L42.3125,140.0957z
	 M45.1348,153.1309l-8.252,5.2128l10.2832-13.1054L45.1348,153.1309z M48.1328,144.9883l4.6094,3.2519l-6.5762,4.4258
	L48.1328,144.9883z M52.5508,157.7129l-7.8477,6.1348l8.8242-14.25L52.5508,157.7129z M54.3828,149.3477l4.9629,2.6757
	l-6.0703,5.2852L54.3828,149.3477z M53.1719,168.3086l7.1406-14.9981l0.1133,7.7754L53.1719,168.3086z M61.748,171.9531
	l5.7403-15.8242c0.3222,2.7148,0.9082,7.834,0.9082,7.834L61.748,171.9531z M61.168,160.584l0.0703-7.7051l5.1426,2.1445
	L61.168,160.584z M69.1426,163.1699l-0.8711-7.4648l5.3926,1.5361L69.1426,163.1699z M71.1211,174.585l3.832-16.419l1.6172,7.6699
	L71.1211,174.585z M77.1934,164.9883l-1.5625-7.3203l5.4961,0.9238L77.1934,164.9883z M80.5938,176.0938l2.0039-16.6407
	l2.2812,7.7149L80.5938,176.0938z M85.5879,166.4609l-2.4238-7.582l5.7539,0.3203L85.5879,166.4609z M90.3066,176.5918
	l0.0723-16.7109l3.2422,7.6503L90.3066,176.5918z M94.166,166.5918c0,0-2.0371-4.9941-3.2871-7.3926
	c1.8926-0.1055,5.6758-0.3203,5.6758-0.3203L94.166,166.5918z M99.8105,176.0234l-1.791-16.5703l4.002,6.961L99.8105,176.0234z
	 M102.5566,165.6309l-4.0371-6.9278l5.5723-0.9638L102.5566,165.6309z M109.2344,174.4531l-3.6074-16.3594l4.8203,6.6094
	L109.2344,174.4531z M110.877,163.8477l-4.8184-6.5391l5.3906-1.5361L110.877,163.8477z M118.4121,171.7393l-5.3203-15.7842
	l5.5684,6.0879L118.4121,171.7393z M113.4512,155.166l5.1386-2.1406l0.1172,7.8125L113.4512,155.166z M90.0293,154.8633
	c-35.8242,0-64.8633-29.041-64.8633-64.8633s29.0391-64.8623,64.8633-64.8623c35.8223,0,64.8633,29.04,64.8633,64.8623
	S125.8516,154.8633,90.0293,154.8633z M160.1777,120.6582l-7.7695-0.3965l2.2481-5.0937L160.1777,120.6582z M156.3789,128.1133
	l-7.7187-1.0508c1.1855-1.959,2.75-4.8945,2.75-4.8945L156.3789,128.1133z M151.8301,135.2158l-7.7071-1.9756l3.3204-4.5371
	L151.8301,135.2158z M146.5156,141.9932l-7.3554-3.0049l3.6796-4.211L146.5156,141.9932z M137.5215,140.3457l2.9258,7.5352
	l-7.0352-3.8594L137.5215,140.3457z M131.6973,145.2383l2.0332,7.7871l-6.5684-4.5371L131.6973,145.2383z M126.4492,157.4141
	l-6-5.2461l4.8946-2.6416L126.4492,157.4141z M127.3672,168.5137l-7.168-15.4883l6.2774,5.5791L127.3672,168.5137z
	 M135.627,163.5937l-8.6446-14.246l6.5039,4.5312L135.627,163.5937z M143.5195,158.166l-10.2129-13.2871l7.1407,3.9648
	L143.5195,158.166z M150.7578,151.8633l-11.5976-12.0156l7.4277,3.0703L150.7578,151.8633z M157.2773,144.8125l-12.9707-10.7148
	l7.9258,2.0527L157.2773,144.8125z M162.8008,137.0977l-13.961-9.1797l7.9883,1.0918L162.8008,137.0977z M167.5156,128.7734
	l-14.8222-7.6054l7.8398,0.3379L167.5156,128.7734z M171.373,120.0254l-15.6054-5.8926l7.9336-0.6582L171.373,120.0254z
	 M174.3711,111.0176l-16.4023-4.2754l8.1464-1.2852L174.3711,111.0176z M159.4434,99.1367l7.8281-2.1797l8.7422,4.5703
	L159.4434,99.1367z M70.6855,109.7773 M80.8242,110.0566 M78.0156,107.3379h7.3301v-0.2754l-3.0371-2.1895L78.0156,107.3379z
	 M75.4805,117.4805v-9.0274H71.123L75.4805,117.4805z M81.0332,104.3457H71.623l4.4317,2.8633L81.0332,104.3457z M82.5371,108.4531
	l-4.1992,7.9453l7.0078-7.5859v-0.3594H82.5371z M76.4902,108.4531v9.2324l4.8789-9.2324H76.4902z M69.9766,108.4531h-2.9161v0.3594
	c0,0,4.2129,4.7012,6.6934,7.4658L69.9766,108.4531z M74.252,107.3379l-4.0567-2.6192l-3.1348,2.3438v0.2754H74.252z
	 M99.6855,114.3008l-1.7421,1.1582l-2.4161-2.0274l0.8672-1.9004L99.6855,114.3008z M101.4863,110.1543l1.5703-1.8652l0.7207,0.6054
	l0.5176-0.6152c-0.2539-0.9219-1.0351-1.5488-2.2129-2.4141c-0.0722-0.0547-0.1406-0.1093-0.2109-0.1621l-0.7871,0.9317
	l0.7129,0.5976l-1.5664,1.8633L101.4863,110.1543z M108.5078,102.1182l-1.5586-1.3116l-1.4902,1.7715l-0.5645-0.4726l-0.6601,0.7832
	c0.0097,0.0078,0.0156,0.0136,0.0254,0.0195c0.7988,0.5879,1.7968,1.3242,2.5703,2.3535l0.75-0.8974l-0.5625-0.4737
	L108.5078,102.1182z M107.2148,108.459c-0.0117-0.1074-0.0253-0.209-0.041-0.3125c-0.0097-0.0625-0.0156-0.1289-0.0273-0.1895
	c-0.0195-0.1172-0.0488-0.2324-0.0762-0.3418c-0.0098-0.0429-0.0156-0.0859-0.0293-0.1259
	c-0.0371-0.1221-0.0762-0.2442-0.1172-0.3604c-0.0097-0.0234-0.0195-0.0508-0.0293-0.0781
	c-0.0468-0.127-0.0976-0.2481-0.1543-0.3633c-0.0078-0.0156-0.0136-0.0283-0.0175-0.041c-0.0645-0.1289-0.1289-0.25-0.1993-0.3653
	c-0.0039-0.0039-0.0058-0.0126-0.0097-0.0175c-0.0703-0.1231-0.1465-0.2422-0.2266-0.3555
	c-0.7051-1.0117-1.6875-1.7363-2.5117-2.3437c-0.0254-0.0176-0.0449-0.0333-0.0645-0.0489
	c-0.2207-0.164-0.4375-0.3232-0.6347-0.4804l-1.2735,1.5957c0.1817,0.1445,0.3887,0.2949,0.5918,0.4472
	c0.0586,0.041,0.1133,0.086,0.1739,0.1309c0.9511,0.7012,1.8593,1.3847,2.3183,2.3633c0,0.0058,0.0059,0.0156,0.0078,0.0234
	c0.0879,0.1875,0.1543,0.3906,0.2012,0.6074c0.0234,0.0996,0.043,0.1992,0.0606,0.3028c0.0097,0.08,0.0156,0.1523,0.0214,0.2324
	c0.0157,0.1992,0.0176,0.4111-0.0039,0.6347c-0.2031,2.002-1.3867,3.7403-3.205,3.5762l-4.4883-3.7715l-1.084,1.2871l4.623,3.8848
	l-0.0039,0.0039h0.0039l-0.0058,0.002l-0.8555,2.2929h4.5059l-0.3868-2.0644c1.5176-0.7461,2.6895-2.6406,2.9239-5.0098
	c0.0195-0.1972,0.0312-0.3887,0.0312-0.5801c0.002-0.082-0.0039-0.164-0.0078-0.248
	C107.2207,108.6504,107.2207,108.5508,107.2148,108.459z M96.0391,117.3887l-0.6621,1.7734h11.1738l-0.3789-1.7734H96.0391z
	 M54.3438,127.4219l1.3046,1.0918l-0.7031,3.8398l1.4824-0.2676l1.4395-1.7255l1.1191,0.9365l-4.789,5.7402l-1.1192-0.9355
	l2.084-2.5l-4.1094,0.8105l-1.3613-1.1367l3.8066-0.6934L54.3438,127.4219z M48.4941,120.7461l0.8321,1.001l-1.6348,5.2109
	l3.5293-2.9336l0.9336,1.1231l-5.752,4.7783l-0.83-1.001l1.6269-5.2041l-3.5195,2.9277l-0.9336-1.123L48.4941,120.7461z
	 M40.5156,114.8691c0.2793-0.1601,0.543-0.3046,0.791-0.4375c0.2461-0.1308,0.4883-0.2382,0.7247-0.3193
	c0.2343-0.083,0.4707-0.1318,0.705-0.1494c0.2383-0.0156,0.4825,0.0107,0.7422,0.081c0.3613,0.1016,0.6856,0.2579,0.9668,0.4717
	c0.2832,0.2129,0.5293,0.5059,0.7402,0.8789c0.209,0.3711,0.336,0.7344,0.377,1.0899c0.041,0.3554,0.0117,0.7129-0.0898,1.0761
	c-0.0704,0.2569-0.1719,0.4844-0.3086,0.6778c-0.1368,0.1933-0.2989,0.3691-0.4922,0.5263
	c-0.1914,0.1573-0.4102,0.3077-0.6485,0.4522c-0.2402,0.1445-0.5,0.2969-0.7812,0.4551c-0.2793,0.1582-0.543,0.3047-0.791,0.4365
	c-0.2461,0.1338-0.4844,0.2412-0.7207,0.3252c-0.2325,0.084-0.4688,0.1348-0.7051,0.1523c-0.2344,0.0176-0.4805-0.0097-0.7402-0.08
	c-0.3614-0.1006-0.6856-0.2598-0.9688-0.4766c-0.2851-0.2168-0.5312-0.5117-0.7422-0.8828c-0.2109-0.3711-0.3359-0.7324-0.375-1.082
	c-0.039-0.3555-0.0078-0.712,0.0918-1.0743c0.0703-0.2597,0.1738-0.4843,0.3086-0.6777c0.1367-0.1934,0.2988-0.3711,0.4902-0.5313
	c0.1915-0.1611,0.4063-0.3125,0.6465-0.457C39.9746,115.1797,40.2363,115.0273,40.5156,114.8691z M41.2363,116.1377
	c-0.3105,0.1768-0.5644,0.3271-0.7636,0.4521c-0.1993,0.125-0.3575,0.2383-0.4786,0.3379
	c-0.1211,0.1016-0.2089,0.1953-0.2675,0.2842c-0.0567,0.0889-0.1016,0.1846-0.1348,0.2822
	c-0.0527,0.1514-0.0703,0.3106-0.0566,0.4844c0.0136,0.1738,0.0722,0.3496,0.1699,0.5254c0.1015,0.1777,0.2226,0.3164,0.3652,0.4199
	c0.1445,0.1045,0.293,0.1729,0.4492,0.2051c0.1035,0.0234,0.2051,0.0313,0.3086,0.0234c0.1055-0.0068,0.2305-0.0361,0.3809-0.0878
	c0.1465-0.0508,0.3242-0.1309,0.5332-0.2383c0.209-0.1055,0.4687-0.2481,0.7793-0.4239c0.3105-0.1757,0.5664-0.3261,0.7656-0.4511
	c0.1973-0.125,0.3574-0.2383,0.4785-0.3379c0.1192-0.1016,0.209-0.1934,0.2676-0.2803c0.0606-0.0869,0.1055-0.1787,0.1387-0.2783
	c0.0527-0.1485,0.0703-0.3125,0.0547-0.4883c-0.0157-0.1777-0.0743-0.3535-0.1739-0.5293
	c-0.0996-0.1777-0.2207-0.3154-0.3632-0.4141c-0.1407-0.1015-0.2891-0.1699-0.4454-0.2021
	c-0.1015-0.0215-0.205-0.0322-0.3125-0.0283c-0.1035,0.0039-0.2324,0.0312-0.3808,0.084c-0.1465,0.0507-0.3262,0.1308-0.5352,0.2363
	C41.8066,115.8203,41.5469,115.9619,41.2363,116.1377z M32.5137,104.2109l7.7304-0.4375l0.3829,1.1563l-3.879,2.7305l4.7403-0.1163
	l0.3828,1.1573l-6.4785,4.2392l-0.4766-1.4463l4.1172-2.5761l-4.9082,0.1826l-0.3418-1.0381l4.0508-2.7754l-4.8438,0.3711
	L32.5137,104.2109z M38.5352,93.9502l0.6132,4.8105l-7.416,0.9424l-0.1855-1.4472l6.125-0.7774l-0.4278-3.3652L38.5352,93.9502z
	 M38.5684,85.7334l-0.1602,4.9189l-7.4668-0.2421l0.1602-4.918l1.2988,0.043l-0.1113,3.4609l1.7519,0.0566l0.0957-2.9482
	l1.3008,0.042l-0.0957,2.9472l1.8145,0.0586l0.1113-3.4609L38.5684,85.7334z M36.3516,76.1992l0.8203,0.166
	c0.2676,0.0557,0.5254,0.1289,0.7695,0.2188c0.2481,0.0947,0.4766,0.2148,0.6895,0.3652c0.2109,0.1504,0.4004,0.3506,0.5644,0.5977
	c0.1914,0.2871,0.3106,0.6093,0.3574,0.9648c0.045,0.3565,0.0293,0.7266-0.0488,1.1113l-0.5332,2.6465l-7.332-1.4804l0.5371-2.6465
	c0.0742-0.3848,0.2051-0.7315,0.3847-1.043c0.1817-0.3086,0.4161-0.5605,0.7051-0.7519c0.2481-0.1641,0.4942-0.2745,0.7422-0.3321
	c0.2481-0.0576,0.4981-0.0801,0.7539-0.0722c0.2559,0.0078,0.5176,0.039,0.7832,0.0937L36.3516,76.1992z M36.0605,77.6309
	c-0.2753-0.0547-0.5136-0.1006-0.7187-0.1348c-0.2031-0.0352-0.3828-0.0566-0.5391-0.0664
	c-0.1543-0.0098-0.2871-0.0039-0.3984,0.0166c-0.1113,0.0205-0.2148,0.0557-0.3105,0.1084
	c-0.1778,0.0928-0.3204,0.2168-0.4297,0.374c-0.1114,0.1563-0.1895,0.3584-0.2403,0.6055l-0.2187,1.081l4.7773,0.9649l0.2188-1.0821
	c0.0488-0.248,0.0547-0.4628,0.0136-0.6503c-0.041-0.1875-0.125-0.3575-0.25-0.5118c-0.1386-0.164-0.3535-0.2929-0.6386-0.3906
	C37.0391,77.8477,36.6172,77.7422,36.0605,77.6309z M40.1953,67.4297c0.502,0.1963,0.8965,0.4121,1.1856,0.6426
	c0.289,0.2304,0.5136,0.5156,0.6718,0.8574c0.1817,0.3955,0.2696,0.7793,0.2559,1.1572c-0.0137,0.374-0.0918,0.7471-0.2402,1.1182
	c-0.1504,0.3847-0.3516,0.7051-0.6055,0.9629c-0.252,0.2578-0.5488,0.4609-0.8945,0.6113c-0.2442,0.1064-0.4864,0.168-0.7207,0.1855
	c-0.2364,0.0157-0.4747-0.0019-0.7188-0.0527c-0.2441-0.0517-0.498-0.125-0.7598-0.2207c-0.2656-0.0957-0.5449-0.2031-0.8457-0.3223
	c-0.2988-0.1181-0.5781-0.2314-0.8359-0.3398c-0.2578-0.1104-0.4922-0.2305-0.7051-0.3574
	c-0.2129-0.1289-0.3984-0.2803-0.5605-0.4532c-0.1602-0.1728-0.2949-0.3808-0.4024-0.6269
	c-0.1484-0.3457-0.2304-0.6973-0.2382-1.0527c-0.0098-0.3575,0.0625-0.7325,0.2167-1.1231
	c0.1602-0.4043,0.3614-0.7344,0.6055-0.9922c0.2442-0.2558,0.5098-0.4531,0.8008-0.5859c0.291-0.1338,0.5937-0.2129,0.9102-0.2344
	c0.3183-0.0215,0.6328,0.0029,0.9433,0.0723l-0.539,1.3691c-0.3633-0.0527-0.67-0.0117-0.9219,0.1201
	c-0.2539,0.1338-0.4492,0.376-0.5879,0.7276c-0.0742,0.1904-0.1074,0.3701-0.0957,0.5429c0.0097,0.1749,0.0508,0.3321,0.123,0.4747
	c0.0469,0.0918,0.1055,0.1777,0.1778,0.2539c0.0703,0.0781,0.1718,0.1582,0.3047,0.2402c0.1347,0.082,0.3066,0.1719,0.5214,0.2676
	c0.2149,0.0957,0.4864,0.209,0.8203,0.3398c0.3321,0.1309,0.6094,0.2363,0.836,0.3125c0.2246,0.0781,0.414,0.1309,0.5683,0.1621
	c0.1524,0.0313,0.2832,0.043,0.3868,0.0352c0.1035-0.0078,0.205-0.0293,0.3027-0.0674c0.1484-0.0537,0.2852-0.1416,0.4082-0.2617
	c0.123-0.1221,0.2207-0.2754,0.2969-0.4639c0.082-0.209,0.1211-0.4082,0.1152-0.5996c-0.0019-0.1885-0.0449-0.3623-0.125-0.5234
	c-0.0859-0.1612-0.1973-0.2969-0.332-0.4063c-0.1309-0.1094-0.291-0.1992-0.4727-0.2715l-0.2636-0.1045l-0.5059,1.2803
	l-1.1328-0.4453l1.0371-2.6289L40.1953,67.4297z M47.1875,61.1934l-2.543,4.2148l-6.3984-3.8613l2.543-4.2149l1.1152,0.6739
	l-1.7891,2.9648l1.502,0.9053l1.5215-2.5254l1.1152,0.6728l-1.5234,2.5235l1.5547,0.9394l1.789-2.9648L47.1875,61.1934z
	 M59.7773,48.2607l-1.1679,0.8721l-4.4707-5.9941l1.1699-0.8721L59.7773,48.2607z M67.9121,43.3516l-1.1445,0.623l-4.793-2.6172
	l2.1934,4.0332l-1.2832,0.6953l-3.5703-6.5664l1.1445-0.623l4.7871,2.6094l-2.1875-4.0245l1.2832-0.6962L67.9121,43.3516z
	 M74.0508,34.4707l-1.8496,0.6279l1.9765,5.8487l-1.3828,0.4668l-1.9765-5.8496l-1.8496,0.625l-0.418-1.2334l5.084-1.7178
	L74.0508,34.4707z M84.0938,38.7461l-4.8594,0.8047l-1.2227-7.375l4.8574-0.8047l0.2129,1.2832l-3.416,0.5664l0.2852,1.7314
	l2.9101-0.4834l0.2149,1.2852l-2.9121,0.4824l0.2968,1.792l3.418-0.5674L84.0938,38.7461z M92.8242,35.375
	c0.0078,0.5381-0.041,0.9844-0.1465,1.3418c-0.1035,0.3535-0.2832,0.668-0.539,0.9453c-0.2969,0.3174-0.6211,0.541-0.9746,0.6729
	c-0.3496,0.1298-0.7266,0.1962-1.1231,0.2011c-0.4121,0.0069-0.7871-0.0595-1.1211-0.1963
	c-0.334-0.1347-0.6367-0.3339-0.9043-0.5966c-0.1914-0.1866-0.3398-0.3848-0.4433-0.5987
	c-0.1035-0.2109-0.1797-0.4394-0.2246-0.6836c-0.045-0.2461-0.0723-0.5058-0.0821-0.7871c-0.0117-0.2793-0.0176-0.581-0.0215-0.9023
	c-0.0039-0.3203-0.0039-0.6221,0-0.9033c0.002-0.2793,0.0235-0.5401,0.0625-0.7881c0.0411-0.2442,0.1075-0.4746,0.2071-0.6895
	c0.0996-0.2148,0.2422-0.417,0.4277-0.6084c0.2637-0.2705,0.5566-0.4756,0.8848-0.6201c0.3281-0.1445,0.6992-0.2187,1.1191-0.2236
	c0.4356-0.0059,0.8164,0.0556,1.1485,0.1845c0.33,0.129,0.6113,0.3028,0.8437,0.5196c0.2344,0.2207,0.4238,0.4687,0.5625,0.7578
	c0.1387,0.2832,0.2363,0.582,0.2891,0.8965l-1.4688,0.0176c-0.0898-0.3555-0.2422-0.625-0.4609-0.8067
	c-0.2188-0.1836-0.5176-0.2734-0.8965-0.2676c-0.2031,0.002-0.3828,0.041-0.5391,0.1172c-0.1562,0.0742-0.2871,0.1719-0.3906,0.291
	c-0.0684,0.0801-0.125,0.1661-0.1699,0.2608c-0.043,0.0947-0.0781,0.2207-0.1055,0.374c-0.0254,0.1553-0.043,0.3486-0.0488,0.584
	c-0.0098,0.2344-0.0117,0.5293-0.0078,0.8867c0.0039,0.3555,0.0136,0.6543,0.0293,0.8926c0.0117,0.2363,0.0332,0.4326,0.0625,0.5859
	c0.0293,0.1543,0.0683,0.2774,0.1172,0.3711c0.0449,0.0938,0.1035,0.1797,0.1738,0.2539c0.1074,0.1192,0.2402,0.2119,0.3984,0.2793
	c0.1582,0.0684,0.3399,0.1016,0.541,0.0996c0.2227-0.0039,0.4239-0.0429,0.5977-0.1181s0.3203-0.1807,0.4375-0.3155
	c0.1152-0.1406,0.1992-0.2949,0.2519-0.459c0.0489-0.166,0.0743-0.3457,0.0704-0.541l-0.0039-0.2851l-1.375,0.0176l-0.0137-1.2168
	l2.8222-0.0352L92.8242,35.375z M101.9375,39.7637l-1.666-0.2891l-0.9297-3.1875l-1.0352-0.1797l-0.5078,2.9405l-1.4394-0.2491
	l1.2754-7.3711l2.8867,0.5c0.373,0.0645,0.6973,0.1836,0.9746,0.3555c0.2754,0.1719,0.5,0.3779,0.6699,0.6182
	c0.1719,0.2392,0.2871,0.5048,0.3477,0.7949c0.0605,0.293,0.0625,0.5918,0.0097,0.9033c-0.0468,0.2617-0.123,0.4893-0.2304,0.6836
	c-0.1094,0.1953-0.2383,0.3633-0.3907,0.5029c-0.1523,0.1426-0.3203,0.2549-0.5019,0.3409
	c-0.1816,0.0849-0.3672,0.1435-0.5566,0.1738L101.9375,39.7637z M101.084,34.3496c0.0508-0.2891-0.0039-0.541-0.1621-0.7539
	c-0.1602-0.2119-0.3965-0.3447-0.7149-0.4004l-1.3574-0.2344l-0.3359,1.9473l1.3554,0.2334
	c0.3184,0.0557,0.5879,0.0098,0.8086-0.1367C100.8984,34.8574,101.0352,34.6396,101.084,34.3496z M106.5527,41.1855l-1.3886-0.4472
	l2.2929-7.1153l1.3887,0.4473L106.5527,41.1855z M117.2148,39.0312l-1.7636-0.8378l-2.6524,5.5761l-1.3183-0.625l2.6504-5.5781
	l-1.7618-0.8398l0.5586-1.1748l4.8477,2.3037L117.2148,39.0312z M126.1934,43.2959l-4.3653,2.333l-1.7519,2.5137l-1.1895-0.8281
	l1.7559-2.5147l0.6758-4.9014l1.3027,0.9063l-0.5781,3.2695l2.8496-1.6855L126.1934,43.2959z M134.9414,64.6182l-2.6426-4.1582
	l6.3106-4.0088l2.6406,4.1562l-1.0977,0.6992l-1.8593-2.9257l-1.4785,0.9404l1.582,2.4912l-1.1016,0.6982l-1.5801-2.4912
	l-1.5351,0.9746l1.8594,2.9239L134.9414,64.6182z M138.7031,72.791l-0.6504-1.5351l1.8301-2.3545l-2.9609-0.3067l-0.6524-1.5381
	l4.4375,0.6407l2.5078-3.4278l0.6485,1.5293l-1.7168,2.1426l2.7383,0.2637l0.6445,1.5195l-4.2051-0.5762L138.7031,72.791z
	 M142.9688,79.834c-0.3946,0.0332-0.754,0.0058-1.0801-0.084c-0.3242-0.0898-0.6133-0.2266-0.8653-0.4121
	c-0.2519-0.1875-0.4629-0.418-0.6308-0.6943c-0.1699-0.2754-0.2969-0.5791-0.3789-0.9131
	c-0.0996-0.4014-0.1211-0.7793-0.0645-1.1368c0.0567-0.3544,0.1817-0.6953,0.377-1.0175c0.1367-0.2285,0.2968-0.418,0.4804-0.5684
	c0.1817-0.1494,0.3868-0.2734,0.6153-0.375c0.2285-0.0996,0.4765-0.1855,0.748-0.2588c0.2696-0.0752,0.5606-0.1504,0.875-0.2275
	c0.3106-0.0762,0.6035-0.1475,0.877-0.209c0.2754-0.0586,0.5351-0.0996,0.7832-0.1152c0.248-0.0196,0.4883-0.0039,0.7187,0.0429
	c0.2325,0.0469,0.4629,0.1387,0.6914,0.2774c0.3223,0.1943,0.5918,0.4365,0.8067,0.7246c0.2168,0.29,0.373,0.6348,0.4726,1.0361
	c0.084,0.3389,0.1153,0.669,0.0938,0.9893c-0.0215,0.3183-0.0996,0.6191-0.2363,0.9013c-0.1348,0.2823-0.3243,0.5381-0.5723,0.7686
	c-0.2461,0.2305-0.5527,0.4238-0.916,0.5801l-0.3574-1.4385c0.2753-0.1465,0.4863-0.3398,0.6367-0.5791
	c0.1504-0.2383,0.1797-0.5391,0.0918-0.8984c-0.0508-0.1963-0.127-0.3653-0.2344-0.5c-0.1055-0.1358-0.2285-0.2422-0.3691-0.3145
	c-0.0899-0.0488-0.1895-0.0879-0.293-0.1113c-0.1035-0.0254-0.2324-0.0332-0.3887-0.0235c-0.1562,0.0108-0.3516,0.0391-0.584,0.086
	c-0.2343,0.0469-0.5254,0.1133-0.8711,0.2012c-0.3476,0.0859-0.6328,0.1601-0.8632,0.2285
	c-0.2286,0.0664-0.4141,0.1328-0.5567,0.1972c-0.1426,0.0645-0.2539,0.1319-0.334,0.2022c-0.0801,0.0713-0.1484,0.1474-0.207,0.2353
	c-0.0898,0.1299-0.1504,0.2803-0.1797,0.4493c-0.0312,0.1699-0.0215,0.3544,0.0274,0.5507c0.0878,0.3604,0.2558,0.6114,0.5,0.7539
	c0.2441,0.1397,0.5214,0.212,0.8339,0.2149L142.9688,79.834z M141.5977,88.418l-0.3985-4.9112l7.4531-0.6074l0.4004,4.9121
	l-1.2988,0.1045l-0.2812-3.4551l-1.7481,0.1426l0.2402,2.9434l-1.2988,0.1054l-0.2402-2.9433l-1.8106,0.1484l0.2793,3.4551
	L141.5977,88.418z M141.2227,96.5352l0.3496-4.837l7.455,0.5401l-0.1035,1.457l-6.1601-0.4473l-0.2442,3.3829L141.2227,96.5352z
	 M139.6172,104.335l1.0957-4.7237l7.2793,1.6885l-0.3281,1.4229l-6.0137-1.3965l-0.7656,3.3027L139.6172,104.335z
	 M136.7988,111.8477l1.8535-4.5606l6.9239,2.8145l-1.8535,4.5605l-1.2071-0.4902l1.3047-3.209l-1.623-0.6602l-1.1114,2.7325
	l-1.205-0.4883l1.1093-2.7344l-1.6816-0.6836l-1.3047,3.209L136.7988,111.8477z M132.3184,119.6182l0.6875-1.1065l5.4589-0.0898
	l-3.8945-2.4239l0.7695-1.2402l6.3477,3.9492L141,119.8125l-5.4512,0.0977l3.8867,2.416l-0.7695,1.2402L132.3184,119.6182z
	 M128.373,127.9277c-0.25-0.3095-0.4316-0.622-0.5429-0.9394c-0.1094-0.3174-0.1602-0.6328-0.1485-0.9473
	c0.0118-0.3105,0.0821-0.6152,0.2149-0.9121c0.1308-0.2949,0.3105-0.5703,0.539-0.8262c0.2735-0.3086,0.5723-0.541,0.8965-0.6972
	c0.3262-0.1543,0.6758-0.2442,1.0508-0.2657c0.2676-0.0156,0.5137,0.0098,0.7402,0.0762c0.2266,0.0645,0.4454,0.166,0.6563,0.2949
	c0.2109,0.1309,0.4238,0.2871,0.6367,0.4698c0.2149,0.1787,0.4434,0.3779,0.6836,0.5898c0.2383,0.2139,0.4629,0.415,0.666,0.6084
	c0.2051,0.1895,0.3828,0.3818,0.541,0.5762c0.1543,0.1933,0.2774,0.4004,0.3692,0.6162c0.0918,0.2178,0.1465,0.4599,0.1621,0.7256
	c0.0215,0.3769-0.0254,0.7343-0.1406,1.0761c-0.1153,0.3399-0.3106,0.6661-0.586,0.9747c-0.2324,0.2607-0.4843,0.4726-0.7617,0.6347
	c-0.2754,0.1631-0.5644,0.2676-0.8769,0.3164c-0.3086,0.0469-0.627,0.0352-0.9551-0.0371
	c-0.3301-0.0713-0.6602-0.2138-0.9961-0.4267l0.9824-1.1055c0.2774,0.1416,0.5566,0.206,0.8359,0.1953
	c0.2813-0.0127,0.5469-0.1572,0.793-0.4326c0.1348-0.1524,0.2285-0.3106,0.2793-0.4746c0.0527-0.1641,0.0684-0.3242,0.0508-0.4805
	c-0.0117-0.1055-0.0352-0.207-0.0762-0.3066c-0.0371-0.0996-0.1035-0.209-0.1992-0.3321c-0.0977-0.125-0.2305-0.2685-0.4023-0.4326
	c-0.17-0.167-0.3887-0.3701-0.6563-0.6045c-0.2656-0.2383-0.4902-0.4316-0.6758-0.582c-0.1855-0.1504-0.3457-0.2656-0.4785-0.3467
	c-0.1348-0.081-0.2519-0.1357-0.3555-0.1611c-0.1035-0.0264-0.205-0.0391-0.3086-0.0371c-0.1601,0-0.3183,0.0332-0.4746,0.1054
	c-0.1562,0.0733-0.3027,0.1817-0.4375,0.335c-0.2461,0.2764-0.3574,0.5557-0.3359,0.8369c0.0215,0.2813,0.1191,0.5518,0.293,0.8067
	L128.373,127.9277z M120.5313,131.6592l3.8183-3.1104l4.7188,5.793l-3.8164,3.1103l-0.8204-1.0087l2.6856-2.1875l-1.1074-1.3594
	l-2.2891,1.8633l-0.8203-1.0088l2.2851-1.8643l-1.1445-1.4072l-2.6875,2.1885L120.5313,131.6592z M77.5234,147.8213l-1.332-0.3067
	l1.3457-5.8554l-1.7812,0.9492l0.3281-1.4346l1.7812-0.9482l1.3321,0.3037L77.5234,147.8213z M88.1641,143.8857
	c-0.0254,0.3418-0.1114,0.667-0.2578,0.9815c-0.1446,0.3105-0.3145,0.6318-0.5079,0.9619l-1.8203,3.1055l-1.4765-0.1084
	l1.7773-2.9649c-0.0918,0.0313-0.1875,0.0489-0.2812,0.0547c-0.0957,0.0078-0.1895,0.0078-0.2793,0.001
	c-0.252-0.0195-0.4922-0.0879-0.7207-0.2061c-0.2305-0.1191-0.4297-0.2793-0.5957-0.4814c-0.168-0.2022-0.2989-0.4424-0.3887-0.7256
	c-0.0918-0.2773-0.125-0.5957-0.0977-0.9414c0.0254-0.3633,0.1094-0.6865,0.25-0.9668c0.1407-0.2803,0.3223-0.5117,0.5449-0.6963
	c0.2266-0.1826,0.4825-0.3164,0.7735-0.4004c0.289-0.084,0.5996-0.1133,0.9258-0.0908c0.3281,0.0264,0.6308,0.1006,0.9062,0.2217
	c0.2754,0.123,0.5098,0.29,0.7051,0.5c0.1934,0.2119,0.3398,0.4629,0.4375,0.7588
	C88.1563,143.1826,88.1914,143.5176,88.1641,143.8857z M86.8027,143.7969c0.0254-0.3506-0.0449-0.625-0.2129-0.8272
	c-0.1679-0.2021-0.3906-0.3144-0.6699-0.334c-0.2793-0.0205-0.5176,0.0547-0.7129,0.2305c-0.1953,0.1768-0.3047,0.4385-0.332,0.7852
	c-0.0234,0.3369,0.043,0.6084,0.2031,0.8173c0.1602,0.2071,0.3867,0.3213,0.6797,0.3438c0.2793,0.0205,0.5156-0.0576,0.711-0.2314
	C86.6641,144.4062,86.7754,144.1426,86.8027,143.7969z M97.3223,146.5059c0.0312,0.3701-0.002,0.7011-0.1035,0.9921
	c-0.1016,0.2872-0.252,0.5372-0.4532,0.7393c-0.2011,0.2022-0.4394,0.3643-0.7187,0.4795
	c-0.2793,0.1133-0.5781,0.1855-0.8985,0.2109c-0.3066,0.0284-0.6054,0.0098-0.8964-0.0488
	c-0.2891-0.0566-0.5508-0.167-0.7872-0.3262c-0.2343-0.1591-0.4296-0.3711-0.5859-0.6347
	c-0.1582-0.2637-0.2559-0.5918-0.2969-0.9825l1.3614-0.1152c0.0214,0.1641,0.0664,0.3076,0.1328,0.4248
	c0.0664,0.1182,0.1465,0.2139,0.2441,0.2861c0.0977,0.0713,0.209,0.1202,0.336,0.1504c0.125,0.0254,0.2539,0.0342,0.3867,0.0235
	c0.2929-0.0274,0.5254-0.1358,0.6992-0.3301c0.1738-0.1953,0.2441-0.457,0.2168-0.792c-0.0274-0.3144-0.1387-0.5566-0.336-0.7256
	c-0.1972-0.1679-0.4628-0.2402-0.7988-0.2119l-0.1992,0.0176l-0.1016-1.1817l0.1973-0.0175
	c0.3359-0.0293,0.5703-0.1387,0.6992-0.3291c0.1328-0.1905,0.1875-0.419,0.1641-0.6836c-0.0274-0.3145-0.1367-0.543-0.334-0.6885
	c-0.1934-0.1445-0.4141-0.2061-0.6582-0.1856c-0.2598,0.0225-0.4668,0.1202-0.623,0.292c-0.1583,0.17-0.2325,0.4004-0.2208,0.6866
	l-1.3613,0.1181c-0.0215-0.3359,0.0176-0.6386,0.1172-0.9121c0.0996-0.2724,0.2422-0.5078,0.4297-0.706
	c0.1855-0.1983,0.4141-0.3584,0.6797-0.4815c0.2676-0.1201,0.5586-0.1953,0.873-0.2217c0.3282-0.0293,0.6348-0.0009,0.9239,0.0791
	c0.2871,0.0801,0.541,0.2071,0.7597,0.377c0.2188,0.1719,0.3946,0.3809,0.5293,0.6348c0.1348,0.2509,0.2149,0.5341,0.2422,0.8486
	c0.0332,0.4043-0.0195,0.7334-0.1621,0.9902c-0.1445,0.2539-0.332,0.459-0.5664,0.6123c0.2793,0.1162,0.5234,0.3018,0.7344,0.5537
	C97.1582,145.7012,97.2852,146.0537,97.3223,146.5059z M105.5371,147.0518l-1.3262,0.3291l-1.4472-5.8301l-1.1582,1.6513
	l-0.3555-1.4267l1.1602-1.6524l1.3242-0.3291L105.5371,147.0518z M127.9395,53.3145l0.1992-3.5958l3.5937,0.1973l-0.1992,3.5938
	L127.9395,53.3145L127.9395,53.3145z M112.4629,142.1992l0.9785-3.4648l3.4629,0.9765l-0.9805,3.4649L112.4629,142.1992
	L112.4629,142.1992z M51.3652,53.3184l-3.5957,0.0712l-0.0742-3.5986l3.6016-0.0723L51.3652,53.3184L51.3652,53.3184z
	 M68.2773,142.1035l-3.4179,1.1231l-1.1289-3.418l3.4238-1.125L68.2773,142.1035L68.2773,142.1035z M84.6836,52.9473l-0.0059,1.0547
	c-0.0117,0.3007-0.0156,1.1113-0.0156,2.0058v1.6465c0,0.2314-0.0117,0.3525-0.0371,0.418
	c-0.0273,0.0761-0.0957,0.1445-0.207,0.2089c-0.4629,0.2344-1.0254,0.4083-1.6797,0.5186c-0.6524,0.1113-1.3184,0.167-1.9766,0.167
	c-0.9492,0-1.8535-0.1172-2.6914-0.3486c-0.832-0.2305-1.582-0.5918-2.2305-1.0782c-0.6484-0.4853-1.164-1.1162-1.5351-1.8769
	C73.9355,54.9043,73.75,54.0098,73.75,53c0-1.1309,0.252-2.1396,0.752-2.998c0.5-0.8555,1.1367-1.5235,1.8984-1.9825
	c0.6582-0.3916,1.3184-0.6572,1.9609-0.789c0.8633-0.1739,1.8399-0.2364,2.8867-0.1719c0.2579,0.0137,0.5293,0.0361,0.8125,0.0664
	c0.2793,0.0293,0.5098,0.0586,0.6895,0.083c0.1855,0.0244,0.3184,0.0488,0.4004,0.0693c0.1934,0.0381,0.4023,0.0743,0.6172,0.1016
	c0.2168,0.0313,0.3984,0.0508,0.5469,0.0606c0.2734,0.0166,0.3027,0.2011,0.3027,0.2792c0,0.0313-0.0059,0.0899-0.0156,0.1739
	c-0.0196,0.2168-0.0391,0.4941-0.0586,0.8261c-0.0196,0.334-0.0313,0.8204-0.0313,1.4532c0,0.3437-0.1426,0.414-0.2617,0.414
	c-0.0918,0-0.2129-0.0478-0.25-0.2773c-0.0312-0.2422-0.0801-0.459-0.1465-0.6484c-0.0625-0.1915-0.1758-0.3731-0.3379-0.5401
	c-0.2558-0.2803-0.6816-0.54-1.2597-0.7783c-0.9883-0.4111-2.4063-0.459-3.5196-0.1895c-0.4629,0.1104-0.9277,0.3575-1.3847,0.7344
	c-0.4219,0.3574-0.7539,0.8311-0.9864,1.4053c-0.2324,0.5781-0.3515,1.3115-0.3515,2.1846c0,0.7802,0.123,1.5195,0.3613,2.1972
	c0.2383,0.6729,0.5859,1.2657,1.0332,1.7608c0.4492,0.498,0.9941,0.8877,1.6191,1.1572c0.6309,0.2744,1.334,0.4121,2.0957,0.4121
	c0.2715,0,0.5118-0.0098,0.7129-0.0293c0.1954-0.0205,0.3692-0.0635,0.5157-0.1289c0.1504-0.0703,0.2246-0.2207,0.2246-0.4609
	v-1.4063c0-0.8769-0.0039-1.6758-0.0157-1.9736c-0.0078-0.2363-0.0507-0.4151-0.1308-0.5303
	c-0.0742-0.1074-0.2188-0.1855-0.4297-0.2285c-0.1172-0.0293-0.3066-0.043-0.5664-0.043c-0.293,0-0.3223-0.1543-0.3223-0.2197
	c0-0.1143,0.0703-0.249,0.4141-0.249c0.2715,0,0.7246,0.0097,1.3633,0.0293c0.4394,0.0107,0.707,0.0156,0.8066,0.0156
	c0.1133,0,0.375-0.0078,0.7793-0.0264l0,0C84.6211,52.7529,84.6836,52.8535,84.6836,52.9473z M92.8887,58.5078
	c0,0.1133-0.0664,0.2481-0.3828,0.2481c-0.4219,0-0.9688-0.0098-1.6485-0.0293c-0.3183-0.0098-0.5469-0.0157-0.6875-0.0157
	c-0.0761,0-0.3125,0.0059-0.6992,0.0157c-0.5801,0.0195-0.9746,0.0293-1.1855,0.0293c-0.3282,0-0.3985-0.1348-0.3985-0.2481
	c0-0.082,0.0449-0.2187,0.3399-0.2187c0.1679,0,0.3418-0.0196,0.5156-0.0586c0.1933-0.0391,0.3105-0.2627,0.3574-0.6621
	c0.0293-0.2852,0.0488-0.67,0.0586-1.1504c0.0098-0.4844,0.0156-1.1826,0.0156-2.1006v-4.9385c0-0.3252-0.0117-0.6113-0.0293-0.8594
	c-0.0273-0.4453-0.1699-0.6894-0.4336-0.748c-0.1425-0.0391-0.3125-0.0586-0.5156-0.0586c-0.3066,0-0.3379-0.1738-0.3379-0.25
	c0-0.2188,0.334-0.2188,0.459-0.2188c0.1895,0,0.5547,0.0098,1.0957,0.0293c0.416,0.0098,0.6992,0.0157,0.8496,0.0157
	c0.1172,0,0.3633-0.0059,0.7285-0.0157c0.5215-0.0195,0.8848-0.0293,1.0957-0.0293c0.1036,0,0.4141,0,0.4141,0.2188
	c0,0.0762-0.0312,0.25-0.3379,0.25c-0.1172,0-0.2617,0.0156-0.4336,0.043c-0.168,0.0361-0.2812,0.1035-0.3418,0.207
	c-0.0683,0.1172-0.1094,0.3047-0.1289,0.5547c-0.0176,0.25-0.0293,0.5361-0.0293,0.8613v4.9385c0,0.9267,0.002,1.6338,0.0078,2.1172
	c0.0039,0.4795,0.0215,0.8623,0.0528,1.1494c0.0273,0.2168,0.0761,0.3701,0.1464,0.4707c0.0625,0.0908,0.1836,0.1484,0.3653,0.1758
	l0.3711,0.0351c0.1367,0.0156,0.2617,0.0235,0.3769,0.0235C92.8438,58.2891,92.8887,58.4258,92.8887,58.5078z M106.2305,58.2734
	c-0.2168,0-0.42-0.0195-0.6094-0.0566c-0.1856-0.043-0.3809-0.1689-0.5801-0.375c-0.1972-0.209-0.4219-0.6104-0.666-1.1963
	l-3.2637-8.1103c-0.2285-0.5801-0.3808-0.9463-0.4472-1.0938c-0.1641-0.373-0.3067-0.541-0.4668-0.541
	c-0.0723,0-0.1778,0.0312-0.2754,0.1689c-0.0645,0.0869-0.1348,0.2334-0.2383,0.4942l-3.7539,9.3974
	c-0.168,0.42-0.3379,0.7354-0.5098,0.9385c-0.1601,0.1943-0.3886,0.3096-0.6816,0.3447c-0.1543,0.0196-0.3086,0.0293-0.4531,0.0293
	c-0.2579,0-0.2793,0.168-0.2793,0.2207c0,0.0918,0.0507,0.2481,0.3828,0.2481c0.2617,0,0.5293-0.0039,0.8066-0.0137
	c0.2735-0.0098,0.4844-0.0156,0.666-0.0166c0.168-0.0088,0.2676-0.0146,0.295-0.0146c0.1308,0,0.3867,0.0117,0.7753,0.0312
	c0.3497,0.0098,0.6211,0.0137,0.8106,0.0137c0.3086,0,0.3555-0.1563,0.3555-0.2481c0-0.0839-0.043-0.2207-0.3243-0.2207h-0.2246
	c-0.1914,0-0.3281-0.0302-0.3965-0.0947c-0.0683-0.0576-0.1015-0.1494-0.1015-0.2685c0-0.2256,0.0722-0.5196,0.2168-0.878
	l0.8476-2.1933l3.3926,0.0381l1.1953,3.1679c0,0,0.0723,0.2315,0.1328,0.4033c0.0528,0.1504,0.1211,0.294,0.2969,0.294
	c0.1504,0,0.3262-0.0068,0.5117-0.0137c0.211-0.0078,0.4375-0.0176,0.6582-0.0176l1.4297,0.0313
	c0.2891,0,0.4766-0.0098,0.5762-0.0313c0.1934-0.041,0.2129-0.166,0.2129-0.2168C106.5215,58.4414,106.502,58.2734,106.2305,58.2734
	z M101.168,53.8887l-2.7168,0.0312l1.3613-3.6543L101.168,53.8887z M73.0117,88.2148c0,0.002,0,0.002-0.0019,0.003
	C73.0098,88.2207,73.0078,88.2207,73.0117,88.2148z M80.5078,85.1016 M125.4863,63.9316l-0.0625-0.3242H54.377l-0.0567,0.3301
	c-0.0254,0.1367-2.3672,13.9258,0.8281,29.6289c2.9551,14.5234,11.3809,33.709,34.7286,42.6231l0.1464,0.0546l0.1426-0.0566
	c23.6778-9.25,32.0195-28.418,34.8496-42.8672C128.0742,77.6953,125.5137,64.0674,125.4863,63.9316z M71.252,80.8252
	c-0.0215-0.1279,0.2226-0.1318,0.3671-0.2402c0.0743-0.0557,0.043-0.1807,0.0957-0.2715c0.0567-0.0977,0.0801-0.1787,0.0918-0.25
	c0.1485-0.0752,0.2989-0.1494,0.4512-0.2217c-0.414,0.6152-0.7949,1.2822-1.1348,1.9922c-0.0195-0.1621-0.0019-0.3653-0.1113-0.4004
	c-0.1426-0.0488-0.2558,0.0166-0.4004,0c-0.0722-0.0078-0.0586-0.1094,0.0918-0.1758c0.1504-0.0674,0.4375-0.1006,0.4766-0.1172
	C71.2598,81.1084,71.2832,81.0166,71.252,80.8252z M74.9941,78.1172c-0.4003,0.1543-0.7246,0.2861-1.0996,0.4433
	c0.2969-0.3291,0.6075-0.6357,0.9317-0.9199c-0.0235,0.0508-0.043,0.1026-0.0645,0.1504
	C74.8066,77.9023,74.9492,78.0098,74.9941,78.1172z M77.4121,80.6914c0.0059,0.0098,0.0117,0.0166,0.0176,0.0215
	c0.1133,0.1055,0.0488,0.3496,0.1094,0.6553c0.0293,0.1445,0.1308,0.3095,0.1445,0.417c0.0137,0.1201,0.166,0.2285,0.2031,0.2148
	c0.0567-0.0254,0.1074-0.0469,0.1524-0.0654c0.1953-0.0801,0.2402,0.0849,0.4453,0.0654c0.0429-0.0059,0.1504,0.041,0.2558,0.0947
	c0.127,0.0655,0.0879,0.2744,0.0137,0.3643c-0.0723,0.0918-0.1426,0.1777-0.207,0.1894c-0.461,0.086-0.9219-0.1875-0.7754,0.6836
	c0.0625,0.336,0.2344,0.3086,0.4433,0.1817c0.2754-0.166,0.6973-0.2852,0.9278-0.2012c0.0273,0.0117,0.0254,0.127,0.0117,0.2773
	c-1.498,0.4317-2.2344,0.67-3.8516,1.2061c0.086-1.292,0.2461-2.4912,0.4825-3.5732C76.4473,81.0039,76.9629,80.835,77.4121,80.6914
	z M75.9316,80.5947c0.0782-0.2998,0.1602-0.5869,0.2481-0.8672c0.1699,0.0225,0.3203,0.0596,0.3672,0.1211
	c0.0722,0.1065,0.3457,0.3848,0.4785,0.3155c0.0234-0.0118,0.0527,0.0068,0.084,0.0429
	C76.7617,80.3203,76.3887,80.4414,75.9316,80.5947z M82.5215,86.0469c0.0332-0.2481,0.4433-1.291,0.1816-1.4951
	c-0.3008-0.2344,0.4356-0.7745,0.6094-0.9151c0.0781,0.0567,0,0.1543,0.2246,0.1836c0.1856,0.0254,0.1992-0.1142,0.2461-0.2217
	c0.0098-0.0234-0.0059-0.083,0.0313-0.0947c0.039-0.0137,0.0058-0.0752,0.0117-0.1269c0.0097-0.1426,0.0449-0.2793,0.1054-0.4131
	c0.002-0.0069,0.0059-0.0127,0.0079-0.0186c0.8789-0.2051,1.7519-0.3965,2.6152-0.5723c0.3242,1.2452,0.6719,2.6377,1.0351,4.1485
	c-2.7968,0.5928-3.5,0.7685-5.9003,1.3808c-0.0313-0.2021-0.0586-0.4043-0.0899-0.6074c0.0527-0.0215,0.1074-0.041,0.166-0.0527
	c0.336-0.0625,0.4004,0.4785,0.7207-0.0938C82.625,86.9053,82.4746,86.3887,82.5215,86.0469z M101.832,79.0967
	c-0.0058-0.0498-0.0019-0.1045,0.0078-0.1631c0.2637,0.293,0.5215,0.5976,0.7735,0.9101c-0.0469,0.0606-0.082,0.128-0.0899,0.2061
	c-0.0019,0.0166,0.002,0.0283,0.0039,0.042c-0.2871-0.0029-0.5371-0.0049-0.7675-0.0049
	C101.8613,79.8262,101.8789,79.5352,101.832,79.0967z M102.0859,78.3877c0.2286-0.3096,0.5645-0.499,0.7969-0.1865
	c0.2227,0.3047-0.1055,0.5957-0.0898,0.9238c0.0019,0.0234-0.0078,0.0527-0.0176,0.043
	C102.5488,78.9004,102.3203,78.6406,102.0859,78.3877z M102.9063,80.6719c-0.0098,0.1045-0.1153,0.1777-0.0137,0.2929
	c0.0781,0.0879,0.2402,0.2481,0.3301,0.2803c0.0214,0.0069,0.0976-0.001,0.1171-0.001c0.2325,0.0108,0.0313,0.1934,0.086,0.2989
	c0.0097,0.0175,0.043,0.0254,0.0762,0.0175c0.0664-0.0166,0.2168-0.0293,0.3496-0.0361c0.1035,0.1533,0.205,0.3096,0.3066,0.4658
	c-0.2812,0.0889-0.5352,0.1983-0.4453,0.3711c0.3086,0.5928,0.6973,0.1367,0.8652,0.3672
	c-0.0586-0.0801,0.2364,0.2871,0.1739,0.4805c-0.0411,0.1318-0.418,0.0176-0.6563-0.0694c-0.1113-0.04-0.0625-0.1552-0.1894-0.0751
	c-0.129,0.08-0.1172,0.2382-0.1133,0.457c0.0156,0.9453,0.3183,0.334,0.3515,0.6474c0.0157,0.1524-0.1816,0.3409-0.2519,0.4698
	c-0.6348,0.0058-1.2813,0.0234-1.9375,0.0488c0.0176-0.1709,0.0508-0.3145,0.3633-0.2646c0.2597,0.041,0.1953-0.2842,0.1464-0.4405
	c-0.0156-0.0527-0.0351-0.1152-0.041-0.1289c-0.0625-0.123-0.33-0.0849-0.1836-0.2607c0.1914-0.2246-0.1582-0.4717-0.2109-0.6123
	c-0.0469-0.1328,0.6211-0.2705,0.5137-0.3555c-0.0996-0.082,0.0039-0.4316-0.2227-0.6377
	c-0.0723-0.0674-0.7695-0.4092-0.7734-0.4561c0-0.0078-0.1133-0.9199-0.1856-0.8369c0.0098-0.0107,0.0176-0.0195,0.0254-0.0302
	C101.8457,80.6621,102.3027,80.665,102.9063,80.6719z M108.2129,91.3145c0.1406,0.5136,0.2734,1.0371,0.3945,1.5615
	c-0.1465-0.1817-0.3086-0.374-0.416-0.4834c-0.1621-0.168-0.3008-0.3614-0.3691-0.5391c-0.0586-0.1465,0.2461,0.125,0.3066,0.0264
	C108.1875,91.7852,108.0352,91.3623,108.2129,91.3145z M107.9102,93.5254c0.3046,0.4141,0.4765,0.5127,0.6738,0.1973
	c0.0371-0.0557,0.1152-0.0821,0.1875-0.1094c0.0586,0.2695,0.1133,0.542,0.166,0.8183h-3.1973
	c-0.041-0.1132-0.0879-0.2763-0.0586-0.3584c0.0215-0.0517,0.1133-0.0693,0.1329-0.1367c0.0566-0.1719,0.2031-0.3369,0.2324-0.5537
	c0.0234-0.1689-0.291-0.5791-0.2715-0.7285c0.0059-0.0547,0.1543,0.0449,0.3223-0.0059c0.0703-0.0234,0.0937-0.2265,0.0957-0.2246
	c-0.1465-0.0996-0.5918-0.1797-0.9297-0.3203c-0.086-0.0351-0.0391-0.1621-0.127-0.1904c-0.3613-0.125-0.7148-0.1533-0.832-0.2901
	c-0.1953-0.2285-0.3926-0.4726-0.6738-0.5703c-0.0801-0.0273-0.1426-0.1035-0.1895-0.1953c0.3691-0.0166,0.6934-0.0293,0.9863-0.039
	c0.0567,0.0908,0.1153,0.163,0.1797,0.1816c0.416,0.1152,0.6504,0.2402,1.0567,0.3711c-0.0235-0.0059,0.6425-0.0225,0.6425,0
	c0.0977,0.1113,0.0625,0.6484,0.2305,0.6855c0.2871,0.0704,0.3223,0.3311,0.4883,0.543c0.082,0.1035,0.25,0.0625,0.3828,0.1924
	C107.6152,92.9941,107.7969,93.3711,107.9102,93.5254z M109.3457,93.3594c-0.1055-0.4883-0.2246-0.9815-0.3516-1.4746
	c0.1485,0.0205,0.3164,0.0175,0.4043,0.2168c0.0586,0.1289-0.0859,0.3105,0.0157,0.373c0.1113,0.0635,0.2246,0.1309,0.3437,0.1973
	c0.1211,0.0674-0.0117,0.2343,0.1309,0.2959c0.1992,0.0879,0.6601,0.122,0.8476,0.2558c0.4043,0.2871,0.4785-0.4072,0.5762-0.4638
	c0.2676-0.1543,0.4629,0.1611,0.7676,0.1601c0.1914-0.0019,0.4668-0.4541,0.7148-0.6543c0.0821-0.0674,0.1602-0.1064,0.2305-0.0898
	c0.0644,0.0137-0.0977,0.2246-0.0645,0.4082c0.0352,0.1992,0.2481,0.4121,0.2871,0.6719c0.0684,0.4541-0.0546,0.9521-0.1152,1.081
	c-0.0137,0.0322-0.0234,0.0635-0.0293,0.0947h-3.539C109.4961,94.0723,109.4238,93.7129,109.3457,93.3594z M109.7598,88.1201
	c0.1035,0.0713,0.2578,0.0479,0.416,0.1279c0.0566,0.0293,0.2031-0.2617,0.2558-0.2226c0.0743,0.0517-0.1445,0.3828-0.1113,0.5107
	c0.0156,0.0576,0.1777-0.0302,0.2871,0.0166c0.166,0.0713,0.1172,0.3907,0.2246,0.335c0.211-0.1035,0.6758-0.5303,0.9121-0.624
	c0.0547-0.0215,0.1075-0.0313,0.1582-0.0371c0.211,0.5029,0.4102,1.0156,0.5957,1.5351c-0.2128-0.0303-0.5957,0.1133-0.8046,0.0713
	c-0.5391-0.1143-0.7871,0.2315-1.0899,0.4756c-0.4941-0.044-1.0039-0.0801-1.5332-0.1055c0.0059-0.0547,0.0195-0.1142,0.0449-0.1836
	c0.2071-0.5332,0-1.1425,0.2305-1.709c0.0566-0.1406,0.3359-0.4062,0.543-0.3662C109.9766,87.96,109.6777,88.0645,109.7598,88.1201z
	 M113.1172,89.8135c-0.166-0.4698-0.3399-0.9346-0.5254-1.3906c0.4434,0.1728,1.0508,0.413,1.3281,0.7197
	C114.2383,89.502,113.6445,89.7549,113.1172,89.8135z M103.5273,93.4492c-0.125-0.5732-0.2578-1.1367-0.3964-1.6894
	c0.2949,0.3203,0.5468,0.6709,1.0136,0.7119c0.1543,0.0137,0.295,0.0322,0.4336,0.0586c0.1582,0.0302,0.2969,0.2099,0.4629,0.2773
	c0.1817,0.0781,0.3848,0.3643,0.4551,0.5205c0.0293,0.0645,0.082,0.459-0.0879,0.5508c-0.1758,0.0977-0.4707,0.1035-0.6816,0.1045
	c-0.1211,0-0.2969,0.1133-0.2871,0.3252c0.0019,0.0547-0.002,0.0937-0.0079,0.123h-0.6992
	C103.666,94.1025,103.5977,93.7744,103.5273,93.4492z M105.9316,81.0879c-0.0878,0.0439-0.2793,0.1562-0.33,0.3457
	c-0.0762,0.2617-0.6993,0.0723-0.8321,0.3193c-0.0078,0.0157-0.0293,0.0303-0.0507,0.045c-0.1094-0.169-0.2188-0.334-0.3301-0.4981
	c0.0449-0.0498,0.0976-0.1045,0.2051-0.1787c0.3515-0.2471,0.9511-0.3447,1.2753-0.1445
	C105.9102,81.0039,105.9609,81.0742,105.9316,81.0879z M103.0508,85.2617c-0.0508,0.0352-0.1094,0.0879-0.1836,0.1631
	c-0.3496,0.3477-0.8516,0.209-1.1504,0.3779c-0.0293,0.0176-0.0508-0.0009-0.0391-0.0293c0.1543-0.4033-0.3828-0.2851-0.3828-0.3984
	c0-0.0156,0.0059-0.0322,0.0137-0.0469C101.8984,85.2969,102.4805,85.2754,103.0508,85.2617z M101.5996,92.1992
	c0.2871-0.2617,0.4277-0.8203,0.7559-0.8926c0.1914,0.7325,0.3711,1.4854,0.539,2.25c0.0645,0.292,0.125,0.584,0.1836,0.875h-3.2324
	c0.0156-0.0644,0.0488-0.125,0.1231-0.1845c0.207-0.166,0.1601-0.3946,0.3203-0.6387c0.125-0.1914,0.4668-0.377,0.4648-0.5127
	c-0.0019-0.0889-0.1875-0.3105-0.1934-0.4961c-0.0058-0.1533,0.1543-0.2764,0.2461-0.3359
	C101.0625,92.0996,101.4492,92.3389,101.5996,92.1992z M90.0918,94.4316c-0.0957-0.4326-0.1914-0.8623-0.2852-1.2851l-0.1211-0.544
	c2.9317-0.5556,3.7129-0.6709,6.1348-1.0254c0.1563,0.6416,0.3164,1.3223,0.4805,2.0577c-0.0215,0.0254-0.043,0.0488-0.0586,0.0683
	c-0.127,0.1387,0,0.2959,0.1758,0.4522c0.0039,0.0156,0.0078,0.0322,0.0097,0.0478c0.0176,0.0752,0.0332,0.1524,0.0489,0.2285
	H90.0918z M69.5781,92.707c0.8418-0.373,1.9922-0.8398,2.9121-1.1982c0.0196,0.0908-0.2246,0.2832-0.2011,0.374
	c0.0605,0.2344,0.1191,0.4512,0.1132,0.5723c-0.0214,0.5478-0.8457,0.5674-0.3906,0.9443c0.4082,0.3399,0.1055,0.6514-0.2402,1.0322
	h-2.1387C69.6016,93.8525,69.582,93.2764,69.5781,92.707z M69.9199,91.4248c0.0117,0.0195,0.0762,0.0576,0.0879,0.0703
	c0.0371,0.0401,0.0469,0.1455,0.1074,0.1445c0.2168-0.0039,0.2129-0.9697,0.2715-0.9121c0.0645,0.0928,0.1426,0.1573,0.1778,0.3057
	c0.0117,0.0986,0.4628,0.0039,0.5273-0.2891c0.0176-0.0791,0.125-0.1972,0.0449-0.2998c-0.0586-0.0791-0.0644,0.0323-0.2558,0.2119
	c-0.0469,0.0469-0.1582-0.123-0.2696-0.1835c-0.0625-0.0352-0.1406-0.1846-0.209-0.2247c-0.0625-0.039-0.1484,0.044-0.207,0.0166
	c0,0-0.166-0.2109,0.0274-0.4023c0.0136-0.0166,0.0429-0.0771,0.0488-0.1006c0.0078-0.0351,0.0215-0.0801,0.0039-0.1211
	c-0.0449-0.1074-0.1738-0.2148-0.1426-0.2734c0.0469-0.0947,0.2012,0.1777,0.3223,0.0322c0.123-0.1435,0.9902-0.9209,0.7246-1.0381
	c-0.5254-0.2324-0.0606-0.9316-0.0703-1.3613c0.5195-0.2178,0.9453-0.3896,1.3691-0.5547c0.002,0.1758-0.0176,0.3633,0.0528,0.4111
	c0.123,0.087,0.3867-0.4609,0.3593-0.4794c0.209,0.164,0.3731,0.4765,0.4668,0.7636c0.0547,0.1729-0.1347,0.1729-0.1367,0.292
	c0-0.0361,0.0723,0.1006,0.0449,0.2569c-0.0293,0.1796-0.2383,0.5019-0.2558,0.5283c-0.1055,0.1826,0.041,0.1904,0.1621,0.2695
	c0.0742,0.0498,0.1113,0.1572,0.1758,0.2471c0.0097,0.0117,0.0039,0.0293-0.0215,0.041c-0.2188,0.0967-1.0879,0.7558-1.1778,0.8066
	c-0.1757,0.0996-0.1894,1.0616,0.2129,0.875c0.336-0.1533,0.4239-0.4853,0.4844-0.624c0.0078-0.0195,0.0469-0.0527,0.0586-0.0576
	c0.0859-0.0381,0.1816-0.1358,0.2891-0.1426c0.1211-0.0078,0.2285,0.0928,0.3457,0.1143c0.1152,0.0205,0.1464,0.2275,0.2089,0.3232
	c0.045,0.0762,0.1856,0.1465,0.3418,0.1856c-0.1425,0.0517-0.2871,0.1015-0.4296,0.1533c-0.0625,0.0224-0.125,0.0459-0.1875,0.0693
	c-0.1153-0.04-0.0547-0.1904-0.3086-0.1523c-0.1055,0.0166-0.1055,0.2217-0.17,0.33c-0.1445,0.0557-2.5761,1.0186-3.416,1.3868
	c0.0059-0.4493,0.0215-0.8926,0.0449-1.3311c0.0098-0.0068,0.0196-0.0107,0.0274-0.0166c0.1973-0.1016,0.2891,0.0908,0.2422,0.3047
	C69.8516,91.1826,69.8535,91.3105,69.9199,91.4248z M74.5137,91.1445c-0.0215-0.084-0.1328-0.1875-0.2832-0.2871
	c0.1679-0.0615,0.334-0.123,0.5-0.1816c0.0254,0.3222,0.0547,0.6504,0.0879,0.9804c-0.0157-0.0068-0.0313-0.0107-0.0469-0.0195
	C74.6816,91.5898,74.5,91.083,74.5137,91.1445z M74.668,85.0117c-0.1094,0.0391-0.2207,0.0781-0.3301,0.1172
	c-0.002-0.2266,0.2832-0.3818-0.0117-0.4785c-0.0117-0.0039-0.0547,0.0156-0.0664,0.0517
	c-0.0274,0.0713-0.0743,0.1758-0.1309,0.1602c-0.0957-0.0244-0.1738-0.2061-0.3164-0.2871
	c-0.1426-0.083-0.3457-0.0635-0.4336-0.1025c-0.1094-0.0498-0.1074-0.2266-0.2383-0.2256c-0.0703,0-0.3222,0.2392-0.3691,0.2099
	c-0.1543-0.0966-0.1426-0.3437-0.3496-0.4746c-0.1426-0.0937-0.2871,0.3164-0.5235,0.2217c-0.0312-0.0254-0.3457,0.04-0.375-0.0352
	c-0.0175-0.0459,0.2539-0.2197,0.2364-0.2724c-0.0703-0.1865-0.1563-0.3828-0.3008-0.375c-0.209,0.0137-0.3789,0.1133-0.5371,0.2422
	c0.082-0.2266,0.1719-0.4746,0.2793-0.7578c1.0293-0.458,2.166-0.9141,3.375-1.3575c0.1836-0.0673,0.3691-0.1328,0.5566-0.1982
	C74.9043,82.54,74.748,83.7354,74.668,85.0117z M72.1445,85.9492c-0.3847,0.1524-0.7656,0.3028-1.1367,0.458
	c-0.084-0.167-0.1445-0.3222,0.0996-0.2549c0.4102,0.1153,0.25-0.4609,0.5117-0.4316c0.125,0.0137,0.3887,0.1895,0.4805,0.1768
	C72.1055,85.8965,72.1211,85.9189,72.1445,85.9492z M86.2246,77.1699c0.043,0.0459,0.0996-0.2412,0.0938-0.2226
	c0.0058-0.0313,0.789,0.0722,0.3379-0.3086c-0.0333-0.0293-0.2051-0.0166-0.2208-0.1172c-0.0136-0.0684,0.2872-0.0947,0.3028-0.1924
	c0.0215-0.1455-0.2383-0.3662-0.2871-0.4648c-0.0371-0.0713-0.2461-0.17-0.4336-0.2569c0.9668-0.1777,1.9238-0.333,2.8554-0.4599
	c0.5,0.5459,1.0098,1.2314,1.5196,2.041c-1.4063,0.1963-2.8457,0.4385-4.2871,0.7217c-0.041-0.0098-0.084-0.0186-0.125-0.0284
	c-0.0098-0.0019-0.0137-0.0029-0.0215-0.0058c-0.0098-0.0323-0.0195-0.0625-0.0313-0.0948
	c0.0176-0.0029,0.0371-0.0068,0.0606-0.0087c0.1094-0.0108,0.5371-0.0469,0.6055-0.1475
	C86.668,77.5195,86.3809,77.3418,86.2246,77.1699z M99.6016,77.8184c0.0254,0.0214,0.0293,0.0605,0.0117,0.0703
	c-0.043,0.0166-0.084,0.0332-0.127,0.0488c0,0-0.0644,0.0107-0.0215,0.1113c0.211,0.4805-0.1132,0.1787-0.2304,0.8076
	c-0.1192,0.6202,0.3027,0.2823-0.2246,0.8165c-0.0977,0.1005-0.1836,0.2871-0.2676,0.4951
	c-0.0781,0.0029-0.1602,0.0068-0.2442,0.0097c-0.6875-1.1142-1.4199-2.123-2.1816-3.0078c1.5039-0.0683,2.0547-0.0722,3.1348-0.0586
	c0.0332,0.0137,0.0586,0.0235,0.0683,0.0323c0.211,0.2314-0.0625,0.3056-0.1093,0.4658
	C99.4414,77.6553,99.5293,77.7559,99.6016,77.8184z M95.7207,88.2803c-0.0527-0.0625-0.2949-0.792,0.0527-0.6358
	c0.0176,0.0098,0.1973,0.1739,0.3672,0.3242c0.1699,0.1485,0.0508,0.336-0.0273,0.3946c-0.0781,0.0586-0.1602,0.8574,0.209,0.5508
	c0.0644-0.0528,0.5722-0.2129,0.7656-0.1885c-0.0469,0.0137-0.0684,0.1221-0.1738,0.2275c-0.0918,0.0879-0.3379,0.0166-0.4336,0.128
	c-0.209,0.2412-0.2325,0.6709-0.1289,0.7431c0.2968,0.2012,1.5058-1.5664,2.2578-0.9365c0.0664,0.0576,0.0039,0.1416-0.0645,0.2236
	c-0.0664,0.084-0.0312,0.1387-0.164,0.2168c-0.1563,0.0938-0.3067,0.3194-0.4434,0.3516c-0.0703,0.0176-0.1543-0.127-0.1914-0.1348
	c-0.2227-0.0605,0.0234,0.4102,0.0312,0.4317c0.0782,0.2539-0.5918,0.4257-0.8906,0.5019c-0.041,0.0108-0.082,0.0791-0.0722,0.1055
	c0.0351,0.0722,0.0898,0.1377,0.1543,0.1953c-0.2168,0.0264-0.4336,0.0527-0.6524,0.082c-0.1855-0.7246-0.3769-1.4316-0.5703-2.1201
	C95.8281,88.582,95.8398,88.4189,95.7207,88.2803z M94.5449,87.8164c-0.0547,0.1113-0.166,0.1436-0.2363,0.1533
	c-0.0391,0.0069-0.0879,0.0401-0.0957,0.0586c-0.0566,0.1377-0.002,0.3233,0.0449,0.4756c0.0527,0.1729,0.2559,0.0322,0.3047,0.1133
	c0.1465,0.2422-0.3789,0.8867,0.0781,0.9121c0.1153,0.0039,0.3496-0.0967,0.5782-0.252c0.1503,0.5479,0.3007,1.1045,0.4433,1.6719
	c-2.0371,0.2803-4.0918,0.625-6.1172,1.0293c-0.4453-1.9736-0.8203-3.5703-1.164-4.9883c1.9375-0.3847,3.9082-0.7148,5.8613-0.9843
	c0.1348,0.4179,0.2676,0.8418,0.3984,1.2734c-0.0273,0.0039-0.1289,0.0586-0.1582,0.1074
	C94.4531,87.4355,94.6328,87.6445,94.5449,87.8164z M94.8945,85.9229c0.0489-0.0059,0.1797-0.0342,0.2266-0.0401
	c0.0117,0.1152,0.0254,0.2158,0.0859,0.293c0.0157,0.0195,0.1309,0.1015,0.211,0.1279c0.0195,0.0068,0.0605,0.0645,0.0781,0.1279
	c0.0332,0.1309,0.166,0.3418,0.207,0.4668c0.0235,0.0733,0.0293,0.1387,0.0117,0.1563c-0.0566,0.0527-0.2695,0.0918-0.4257,0.125
	C95.1582,86.75,95.0273,86.332,94.8945,85.9229z M98.0625,91.293c0.0195,0.0429,0.0254,0.0898,0.0996,0.1386
	c0.1367,0.0918,0.4727,0.0352,0.5,0.1944c0.0234,0.1494,0.1152,0.5869,0.2031,0.7812c0.0567,0.124,0.1719,0.1758,0.127,0.2627
	c-0.0293,0.0547-0.2656,0.2881-0.3652,0.3145c-0.0528,0.0117-0.1582-0.1045-0.3692-0.0489
	c-0.1816,0.0479-0.6113,0.0079-0.709,0.1202c-0.0976,0.1132-0.6074,0.2246-0.6445,0.2246c-0.1289-0.5616-0.2852-1.1983-0.4316-1.794
	C97.0078,91.417,97.5371,91.3525,98.0625,91.293z M99.2559,88.085c-0.1465,0.0498-0.6836,0.5322-0.8145,0.2275
	c-0.0957-0.2178,0.1094-0.5176-0.0176-0.7266c-0.0566-0.0937-0.248-0.1074-0.3633-0.0517
	c-0.0449,0.0224-0.0859-0.0352-0.1113-0.1016c-0.2012-0.5039-1.3222-0.9004-1.6406-1.1846
	c-0.1543-0.1425-0.0762-0.3193-0.0293-0.4912c1.4453-0.166,2.2344-0.2334,3.6328-0.3388c0.1211,0.1953,0.2656,0.3779,0.3613,0.5107
	c0.4239,0.5869,0.3887,0.5772-0.1718,0.876c-0.2129,0.1113-0.7852,0.4463-0.7735,0.7558
	C99.3379,87.8145,99.6211,87.9648,99.2559,88.085z M99.6973,84.8203c-1.793,0.1358-2.6289,0.2236-4.1485,0.4063
	c0.0664-0.125,0.1192-0.2676-0.041-0.4336c-0.0723-0.0762-0.4492,0.1738-0.4414,0.3134c0.0039,0.0586,0.002,0.1172,0,0.1778
	c-0.1191,0.0146-0.2402,0.0293-0.3691,0.0439c-0.4864-1.4521-1.002-2.8164-1.5352-4.0586c1.7129-0.2226,3.3906-0.3867,4.9981-0.4883
	c0.0546,0.0928,0.1093,0.1875,0.164,0.2823c-0.3379,0.3828-0.0918,0.3545-0.1621,0.624c-0.0351,0.1367-0.4004,0.3096-0.4375,0.5889
	c-0.0195,0.1338,0.1563,0.6543,0.1484,0.8076c0,0.0264,0.0137,0.0459,0.0352,0.0527c0.1426,0.0528,0.3633,0.2695,0.4668,0.3291
	c-0.0547,0.044-0.1113,0.085-0.1641,0.127c-0.0136,0.0097-0.0214,0.0586-0.0097,0.081c0.0605,0.1133,0.1718,0.3487,0.3125,0.4785
	c0.123,0.1153,0.2676,0.1602,0.3633,0.1641c0.0293,0.002,0.0703-0.0176,0.1015-0.0352c0.0156-0.0097,0.0723-0.0136,0.1192-0.0058
	c0.0566,0.0098,0.1406,0.0068,0.2636-0.0742c0.1309-0.084,0.2696-0.209,0.3965-0.3389c0.0781,0.1729,0.1563,0.3486,0.2344,0.5264
	C99.9785,84.4121,99.7012,84.5156,99.6973,84.8203z M92.918,80.7119c-0.5157-1.1523-1.045-2.1914-1.5723-3.0928
	c1.4981-0.1894,2.9258-0.3291,4.2481-0.4101c0.7695,0.8613,1.5175,1.873,2.2304,3.0146
	C95.6387,80.3857,94.9609,80.4668,92.918,80.7119z M95.8438,76.6426c-0.7071-0.7559-1.4356-1.4063-2.1758-1.9414
	c0.9375-0.041,1.8418-0.0489,2.6855-0.0244c1.0274,0.498,2.0254,1.1298,2.9805,1.8837
	C98.2305,76.5449,97.0605,76.5723,95.8438,76.6426z M95.1172,76.6885c-1.3359,0.0947-2.707,0.2334-4.084,0.4131
	c-0.4922-0.7891-0.9922-1.4727-1.4883-2.0381C91,74.8848,91.457,74.8486,92.8125,74.748
	C93.5957,75.2617,94.3691,75.9102,95.1172,76.6885z M86.9609,79.1621c-0.0332-0.0527,0.0938-0.291,0.0118-0.3486
	c-0.0821-0.0596-0.2852-0.2774-0.3536-0.4365c1.3711-0.2618,2.7442-0.4883,4.0879-0.6729c0.5332,0.9102,1.0606,1.9492,1.5684,3.0928
	c-1.75,0.2431-3.5117,0.54-5.2383,0.8808c-0.1465-0.5459-0.293-1.08-0.4375-1.6006C86.8574,79.7891,87.1465,79.4736,86.9609,79.1621
	z M89.7988,81.7754c0.0039,0.0039,0.0039,0.0098,0.0039,0.0137c0.0235,0.0654-0.5156,0.3584-0.6035,0.3281
	c-0.4863-0.1641-0.5273,0.539-0.7344,0.6582c-0.0664,0.0391-0.1679-0.3555-0.3535-0.3555c0.0215,0-0.2656-0.0615-0.3476,0.1006
	c-0.0528,0.0986-0.0703,0.2217-0.0801,0.3223c-0.0137,0.1064,0.0332,0.2002,0.0977,0.2041
	c0.0761,0.0039,0.1621,0.0049,0.2246-0.0371c0.1718-0.1133-0.2149,0.3359-0.1797,0.3584c0.123,0.081,0.541-0.0264,0.7285,0.081
	c-0.0859,0.1113-0.2656,0.1817-0.2969,0.3203c-0.0078,0.1162,0.8887-0.2734,0.8477-0.0664
	c-0.084,0.4141,0.5703-0.1592,0.6054-0.1797c0.3848-0.3457,0.8086-0.8593,1.1856-1.1845c0.1484-0.126-0.3086-0.4727-0.6797-0.6348
	c0.668-0.1074,1.334-0.2051,2.3027-0.3477c0.5293,1.2432,1.043,2.6065,1.5293,4.0586c-1.9004,0.2608-3.8535,0.5889-5.8125,0.9756
	c-0.3554-1.4492-0.707-2.8408-1.0468-4.1426C88.3418,82.0303,89.1035,81.8906,89.7988,81.7754z M88.8906,92.1084
	c-2.084,0.4228-4.1699,0.9111-6.207,1.4541c-0.3535-1.7959-0.6563-3.4932-0.8984-5.0488c1.9707-0.5254,3.9687-0.9942,5.9472-1.3955
	C88.1055,88.6797,88.4961,90.3535,88.8906,92.1084z M82.8594,94.4316c-0.0176-0.081-0.0352-0.1621-0.0508-0.2421
	c2.041-0.5411,4.1328-1.0313,6.2246-1.4571c0.1231,0.5567,0.2461,1.124,0.3731,1.6992H82.8594z M101.1797,84.7246
	c-0.1192,0.0059-0.2363,0.0117-0.3555,0.0176c-0.1836-0.4346-0.373-0.8594-0.5664-1.2754
	c-0.0156-0.0313,0.0156-0.0205,0.0469,0.0156c0.2402,0.293,0.4394,0.5488,0.7578,0.7998
	C101.1797,84.376,101.209,84.5498,101.1797,84.7246z M100.6895,75.8643c-0.0411,0.0302-0.4454-0.1436-0.5606-0.0459
	c0.0117,0.0586,0.0566,0.0693,0.0879,0.1054c0.0098,0.0117-0.002,0.0479-0.0137,0.0518c-0.039,0.0117-0.0761,0.039-0.1133,0.0547
	c-0.0195,0.0068-0.0293,0.0488-0.0078,0.0693c0.0352,0.0381,0.0782,0.0781,0.0938,0.1074
	c-0.1543,0.1328-0.1738-0.0898-0.3516,0.0977c-1.0156-0.7735-1.4804-1.1084-2.3066-1.5674
	c0.6582,0.0488,1.2695,0.1211,1.8222,0.2148c0.377,0.1573,0.75,0.3291,1.1192,0.5088
	C100.6172,75.627,100.7715,75.8057,100.6895,75.8643z M96.5215,74.1592c-0.5645-0.2627-1.4824-0.4893-2.0567-0.6983
	c0.4864,0.086,1.0079,0.1778,1.7461,0.3203c0.6524,0.127,1.4922,0.4385,1.4922,0.4385S96.9258,74.1738,96.5215,74.1592z
	 M95.1543,74.1602c-0.002,0-0.0039,0-0.0078,0c-0.7383,0-1.2637,0.0244-2.1895,0.0664c-0.5195-0.3204-1.0468-0.585-1.5781-0.7911
	c0.0566,0,0.1191,0,0.1816,0c0.2969,0,0.5958,0.003,0.8516,0.0069h0.0098C93.3418,73.582,94.2578,73.8223,95.1543,74.1602z
	 M92.0352,74.2871c-0.9356,0.0723-1.92,0.1748-2.9356,0.3076c-0.5312-0.4824-0.7969-0.7177-1.1445-0.9306
	c0.6719-0.0782,1.3242-0.1348,1.9453-0.1729C90.6133,73.6436,91.3281,73.9102,92.0352,74.2871z M88.418,74.6895
	c-0.6485,0.0917-1.3067,0.1953-1.9649,0.3115c-0.0488-0.1465-0.248-0.0449-0.291-0.1592c0.0059-0.0098-0.0879-0.0859-0.1914-0.0918
	c-0.1816-0.0098-0.4355,0.0527-0.5605,0.0244c-0.1329-0.0293-0.0938-0.081-0.0645-0.1572c0.0645-0.1494,0.4473-0.0059,0.4981-0.416
	c0.0078-0.0742,0.0253-0.1602,0.0449-0.2461c0.4043-0.0664,0.8086-0.127,1.2051-0.1817
	C87.5234,73.9609,87.9668,74.2686,88.418,74.6895z M86.0742,80.5488c0.1074,0.4004,0.2188,0.8184,0.334,1.2559
	c-0.6836,0.1396-1.3672,0.289-2.0469,0.4433c0.0469-0.0712,0.0899-0.1386,0.1289-0.1992c0.1973-0.3105,0.4922-0.2324,0.6817-0.4843
	C85.4531,81.1953,85.7344,80.8535,86.0742,80.5488z M82.0391,93.7344c-0.8203,0.2226-1.6309,0.457-2.4356,0.6972h-0.2187
	c0.0683-0.0771,0.1289-0.1562,0.1718-0.2363c0.0196-0.0361,0.0372-0.2158,0.0352-0.291c-0.0039-0.1914-0.0176-0.4277-0.2129-0.3604
	c-0.0195,0.0059-0.3262-0.0107-0.4844-0.0576c-0.0215-0.0078-0.0468-0.0644-0.0215-0.1162
	c0.0547-0.1084,0.1368-0.2744,0.0528-0.3252c-0.2403-0.1387-0.711,0-0.9727-0.0547c-0.0195-0.0019-0.5215-0.2539-0.7148-0.3691
	c-0.0508-0.0313-0.0039-0.0772,0.0371-0.0957c0.0703-0.0332,0.1562-0.0947,0.1836-0.1016c0.0469-0.0117-0.0879-0.248-0.1641-0.3027
	c-0.0761-0.0527-0.1211,0.0185-0.1543-0.0791c-0.0312-0.0977,0.0274-0.0801-0.0332-0.1709
	c-0.0781-0.1113-0.1719-0.249-0.1758-0.2578c-0.1543-0.2949-0.1543,0.0449-0.291-0.0996c-0.0156-0.0176,0.3008-0.3867-0.1269-0.419
	c-0.1133-0.0088-0.1387-0.5849-0.3184-0.5263c-0.1777,0.0576-0.375,1.5019-0.707,1.2373c-0.0469-0.4561-0.0879-0.9063-0.1231-1.3487
	c2.6856-0.8945,3.4434-1.1113,5.7793-1.7705C81.3965,90.3145,81.6973,92.0107,82.0391,93.7344z M75.6426,89.7207
	c-0.0781-0.1914-0.2227-0.416-0.3496-0.3955c-0.0078-0.1436-0.0137-0.2842-0.0196-0.4268c0.1934-0.0175,0.3418,0.0616,0.5196-0.0136
	c0.1093-0.0479-0.2325-0.2852-0.2383-0.2539c0.0117-0.0684,0.0683-0.1172,0.1074-0.1719c0.0156-0.0215,0.0332-0.1055,0.0332-0.1348
	c-0.0039-0.164-0.0625-0.5127-0.2383-0.293c-0.0371,0.045-0.1172,0.0245-0.2129-0.0283c-0.0058-0.1943-0.0078-0.3867-0.0097-0.5771
	c0.2246,0.1426,0.4785,0.248,0.5508,0.2168c0.0742-0.0313,0.2656,0.0332,0.2656,0.0332c0.4238-0.0674-0.0508-0.3594-0.0039-0.461
	c0.0371-0.0839,0.1601-0.041,0.1816-0.1035c0.0488-0.1474,0.0215-0.4004,0.2559-0.5722c0.2344-0.1719-0.0352-0.6309-0.2266-0.5625
	c-0.1484,0.0527-0.2851,0.1748-0.3496,0.3046c-0.0644,0.1329-0.3086,0.0772-0.2949-0.0058c0.0137-0.083-0.1231-0.3906-0.3145-0.3779
	c-0.0156,0.0009-0.0312,0.0146-0.0488,0.0322c0.0059-0.1699,0.0117-0.3418,0.0195-0.5098c1.8086-0.6006,2.6621-0.8681,3.8301-1.2051
	c-0.0039,0.0674,0,0.1192,0.0078,0.1456c-0.3945,0.1494-0.5273,0.663-0.4336,0.9755c0.0469,0.1534,0.2207,0.0948,0.3086,0.2364
	c0.0684,0.1113-0.0058,0.4316,0.0606,0.5166c0.1113,0.1435,0.3203,0.3965,0.3359,0.415c0.1914,0.2139,0.3164,0.6133,0.4941,0.6406
	c0.0958,0.0147,0.2579,0.045,0.3223,0.1426c0.0449,0.0713,0.3047,0.2832,0.3516,0.3379c0.1777,0.2109,0.3164,0.2051,0.457,0.1172
	c0.0156,0.1103,0.0293,0.2187,0.0469,0.332C78.418,88.8145,77.6641,89.0527,75.6426,89.7207z M75.2734,80.8154l-0.2207,0.0791
	c-0.1992,0.0703-0.3984,0.1407-0.5996,0.2129c-1.0801,0.3985-2.0488,0.7822-2.9453,1.169c0.459-1.0118,0.9922-1.9307,1.5899-2.7432
	c0.1386,0.125,0.1738,0.3838,0.4355,0.377c0.293-0.0079,0.166-0.2911,0.3223-0.3672c0.0293-0.0137,0.2129-0.0235,0.3886-0.0586
	c0.1348-0.0274,0.1231,0.084-0.0605,0.2597c-0.2422,0.2325-0.5156,0.5889-0.6289,0.586c-0.5293-0.0274,0.8769,1.0293,0.7383,0.0332
	c0.1992-0.0821,0.3437-0.0449,0.498-0.0352c0.2031,0.0078,0.5547-0.6328,0.7988-0.6328l0,0
	C75.4746,80.0527,75.3691,80.4258,75.2734,80.8154z M72.875,78.9951c-0.3555,0.1631-0.6973,0.3233-1.0254,0.4854
	c0-0.0313,0.0234-0.084,0.0664-0.1895c0.1817-0.1582,0.3633-0.3086,0.5488-0.4551c0.004-0.0029,0.0098-0.0058,0.0137-0.0088
	l0.0156-0.0097c0.0137-0.0108,0.0274-0.0225,0.043-0.0332l0.0234-0.0196c0.4083-0.3173,0.8321-0.6191,1.2579-0.8896
	c0.0429-0.0273,0.0898-0.0537,0.1347-0.0801C73.5742,78.166,73.2129,78.5664,72.875,78.9951z M70.5801,82.209
	c0.0429,0.0781,0.1953,0.125,0.3125,0.1308c-0.0391,0.0879-0.0801,0.1719-0.1172,0.2598c-0.1328,0.0615-0.3926,0.1826-0.3926,0.1826
	l-0.7324,0.3487c0,0-0.6543,0.3242-0.9649,0.4863c-0.2011-0.0088-0.2011-0.0088-0.2011-0.0088s0.0957-0.3994,0.207-0.3994
	s0.0957,0.0478,0.2734,0c0.1739-0.0488,0.2383-0.207,0.3672-0.3203c0.1289-0.1133,0.2774-0.1153,0.2813-0.3086
	c0.0039-0.1446,0.043-0.3535,0.084-0.3633c0.0664-0.0176,0.082-0.0176,0.1777,0.1123c0.0977,0.1279,0.0176,0.208,0.3379,0.0811
	C70.5313,82.2803,70.5156,82.0908,70.5801,82.209z M70.4844,83.3301c-0.1289,0.3437-0.25,0.6972-0.3633,1.0566
	c-0.1367,0.0508-0.2891,0.0684-0.4707,0.0254c-0.043-0.0098-0.0781,0.2402-0.4316,0.4131
	c-0.0469,0.0225-0.1211,0.0469-0.2051,0.0732c-0.0645,0.1123-0.125,0.2276-0.1133,0.295c0.0156,0.0947-0.209,0.2714-0.1133,0.4472
	c0.0977,0.1758-0.0801,0.624-0.0234,0.7188c0.0566,0.0967-0.2071,0.1933-0.0117,0.3056c0.1953,0.1114-0.1231,0.3721-0.125,0.42
	c-0.002,0.0478-0.3184,0.2187-0.4317,0.2187c-0.1113,0-0.414-0.0166-0.6074-0.0781c-0.1016-0.0361,0.2012-0.2881,0.1152-0.4014
	c-0.0742-0.1006-0.0586-0.0713,0-0.1758c0.127-0.2246-0.1523-0.2509,0.1367-0.2988c0.2872-0.0469,0.42-0.7246,0.3223-0.7246
	c-0.0957,0-0.3027-0.0176-0.0625-0.2559c0.2344-0.2363-0.1367-0.1582-0.1933-0.1425c-0.2305,0.0771-0.4415,0.1367-0.629,0.2314
	c0.0997-0.206,0.2012-0.4131,0.3047-0.6152C68.4355,84.3359,69.4102,83.8281,70.4844,83.3301z M68.707,91.8477
	c-0.0019-0.1661,0.1211-0.375,0.2852-0.5733c-0.0137,0.3447-0.0234,0.6904-0.0274,1.041c-0.1152,0.0528-0.2304,0.1055-0.3437,0.1592
	C68.6758,92.3428,68.7129,92.1504,68.707,91.8477z M67.2188,84.4424c-0.7422,0.4648-1.0762,0.6767-1.4219,0.9306
	c0.3945-0.5869,0.8144-1.1543,1.2578-1.7001c0.1582,0.1376,0.3125,0.2617,0.416,0.3193
	C67.3867,84.1426,67.3008,84.2891,67.2188,84.4424z M66.5156,90.376c0.0176,0.1123-0.0625,0.2236-0.2402,0.2236
	c-0.1738,0-0.1426,0.1602-0.209,0.209c-0.0625,0.0488-0.2871,0.0488-0.4629-0.0645c-0.0254-0.0166-0.0469-0.0332-0.0664-0.0507
	c0.0781-0.3692,0.1621-0.7334,0.2539-1.0928c0.2168-0.1279,0.4414-0.2559,0.6719-0.3838c-0.0059,0.1367-0.0254,0.2861-0.0859,0.4209
	c-0.0079,0.0156-0.0118,0.0615-0.0079,0.0713c0.0196,0.0283,0.0411,0.0517,0.0664,0.0586c0.086,0.0254,0.1778-0.041,0.2188-0.0752
	c0.0137-0.0127,0.0312-0.0088,0.0449,0.0088c0.0567,0.0644,0.1856,0.2217,0.1856,0.2588c0,0.0488-0.1778,0.0312-0.2422,0.0312
	c-0.0625,0-0.1094,0.0322-0.125,0.0791C66.5039,90.1191,66.5,90.2646,66.5156,90.376z M66.7754,88.3965
	c-0.2656,0.1406-0.5234,0.2832-0.7734,0.4267c0.2597-0.8935,0.5683-1.7548,0.9199-2.582c0.1269,0.252,0.3164,0.5537,0.2324,0.9287
	c-0.0566,0.2539-0.2754,0.3877-0.3418,0.6309C66.7422,88.0518,66.9609,88.0566,66.7754,88.3965z M66.752,85.3613
	c-0.5743,1.2119-1.0508,2.5059-1.42,3.8555c-0.1757,0.1113-0.33,0.208-0.4707,0.2969c0.0371-0.1075,0.1192-0.3741,0.0098-0.5469
	c-0.0781-0.1182,0.2539-0.7949,0.2539-0.7949c-0.1133-0.1817-0.1445-0.3516-0.1504-0.4532
	c-0.0039-0.0585-0.0488-0.0966-0.0723-0.1035c-0.1035-0.0361-0.1679-0.1396-0.246-0.0449c-0.0235,0.0283-0.0723,0-0.129-0.043
	c0.1387-0.2607,0.295-0.5468,0.4747-0.8779C65.8008,85.998,65.9844,85.8545,66.752,85.3613z M67.8438,93.8789
	c0.0351-0.1777,0.0605-0.3047,0.0937-0.4141c0.3359-0.1621,0.6777-0.3222,1.0293-0.4824c0.0059,0.4766,0.0215,0.961,0.0469,1.4492
	H68.084C67.9316,94.1836,67.8379,93.9062,67.8438,93.8789z M87.7617,130.6621c-14.625-6.6094-23.2265-16.5918-27.3027-31.7656
	h27.3027V130.6621z M92.2266,130.6367V98.8965h27.0488C115.627,111.0605,107.8633,123.2715,92.2266,130.6367z M120.4434,94.4316
	h-0.0918c-3.9629-13.0586-16.1153-22.5937-30.4493-22.5937c-14.3378,0-26.4882,9.5351-30.4511,22.5937h-0.0489
	c-0.0097-0.0449-0.0195-0.0859-0.0293-0.1308c-2.1796-11.0254-1.7285-21.1543-1.2304-26.4248h63.5703
	C122.3926,74.1484,122.7617,84.0449,120.4434,94.4316z"/>
</svg>
