<?xml version="1.0" encoding="utf-8"?>
<!-- Generator: Adobe Illustrator 22.0.1, SVG Export Plug-In . SVG Version: 6.00 Build 0)  -->
<svg version="1.1" id="Слой_1" xmlns="http://www.w3.org/2000/svg" xmlns:xlink="http://www.w3.org/1999/xlink" x="0px" y="0px"
	 viewBox="0 0 907.1 124.3" style="enable-background:new 0 0 907.1 124.3;" xml:space="preserve">
<style type="text/css">
	.st0{fill:#FFFFFF;}
	.st1{fill:url(#SVGID_1_);}
</style>
<g>
	<path class="st0" d="M73.3,15.1c55.8,0,81.6,21.9,81.6,52.4c0,30.6-25.9,52.4-81.6,52.4H11.1V15.1H73.3z M71.5,39.1H43.3V96h28.2
		c29.7,0,51.2-8.8,51.2-28.5S101.2,39.1,71.5,39.1z"/>
	<path class="st0" d="M217.2,15v105H185V15H217.2z"/>
	<path class="st0" d="M557.5,15v105h-33.3V87.1l-38.7,29.8l-38.7-31.3V120h-33.3V15l71.9,59.4L557.5,15z"/>
	<path class="st0" d="M827.3,12.8c47,0,70.5,25.5,70.5,54.7s-23.5,54.7-70.5,54.7s-70.5-25.5-70.5-54.7S780.3,12.8,827.3,12.8z
		 M827.3,38.3c-22.7,0-34.8,12.4-34.8,29.2s12,29.2,34.8,29.2s34.8-12.4,34.8-29.2S850.1,38.3,827.3,38.3z"/>
	<path class="st0" d="M690.5,76.4c-4,11.5-15.2,19.2-33,19.2C635,95.6,623,83.1,623,66.3s12-29.2,34.6-29.2c18,0,29.4,7.8,33.3,19.5
		c0.5-0.1,24.3,0.1,35.7,0c-5-24.6-28-45-69-45c-46.7,0-70.1,25.5-70.1,54.7s23.4,54.7,70.1,54.7c41.6,0,64.6-19.6,69.2-44.7
		C715.3,76.4,691.1,76.4,690.5,76.4z"/>
	<g>
		
			<linearGradient id="SVGID_1_" gradientUnits="userSpaceOnUse" x1="445.9876" y1="91.8323" x2="525.5638" y2="91.8323" gradientTransform="matrix(1 0 0 -1 0 123.7323)">
			<stop  offset="1.027034e-07" style="stop-color:#1F9BC6"/>
			<stop  offset="1" style="stop-color:#64C2C8"/>
		</linearGradient>
		<path class="st1" d="M463.3,5.8h44.5c0,0,2.2,1.1,3.3,1.7c5.6,3.2,17.7,10.6,17.7,10.6v2.2L485.5,58l-43.1-37.8V18L463.3,5.8z"/>
	</g>
	<path class="st0" d="M315.3,14.6l-68,105.4h32.5l8.5-13.9h53.4l9,13.9h33L315.3,14.6z M299.5,81.5l15.8-22.9L331,81.5H299.5z"/>
</g>
</svg>
